M48
INCH
T01C0.0150
T02C0.1180
T03C0.0400
T04C0.0320
T05C0.0300
%
T01
X-002500Y+000250
X-002000Y-003000
X+009000Y-005500
X+006558Y-000308
X+001125Y+002800
X+001750Y-001500
X+010697Y+002786
X+005620Y-001980
X+005812Y-003394
X+004750Y+001000
X+004750Y-002750
X+000000Y-000750
X+003750Y+003500
X-000500Y+000250
X+001500Y-003000
X-000500Y+001750
X+003266Y+000500
X-001993Y+003504
X-001635Y+004678
X-000500Y-000250
X-002996Y+003403
X-003672Y-000038
X-001189Y-002060
X-005790Y-004220
X-005681Y+003160
X+010704Y+005241
X+010693Y+004079
X+001750Y+003000
X-004710Y-002739
X+002011Y+000534
X-007795Y+002861
T02
X-011344Y+006530
X+011883Y+006530
X-011344Y-006855
X+011883Y-006855
T03
X+003110Y+005733
X+003110Y+004733
X+002110Y+005733
X+002110Y+004733
X+001110Y+005733
X+001110Y+004733
X-002598Y+005733
X-002598Y+004733
X-003598Y+005733
X-003598Y+004733
X-004598Y+005733
X-004598Y+004733
X-009173Y+002322
X-009173Y+001322
X-009173Y+000322
X-009173Y-000677
X-009173Y-001677
X-009173Y-002677
T04
X+010660Y-001241
X+010660Y+000884
T05
X-006818Y-001320
X-006818Y+001120
X-004850Y+001120
X-004850Y-001320
M30
