M48
INCH
T01C0.0150
T02C0.0400
T03C0.1259
T04C0.0450
T05C0.1120
T06C0.0350
T07C0.1200
T08C0.0600
T09C0.0910
%
T01
X-029000Y+012750
X-032500Y+014250
X-018250Y+008250
X-027500Y+008250
X-040000Y+025750
X-030250Y+025500
X-018000Y+025750
X-014000Y+025750
X-011600Y+024710
X-008250Y+025750
X-005750Y+025500
X-003000Y+025500
X+022500Y+025000
X+025900Y+024740
X+027990Y+024720
X-047000Y+017250
X-045730Y+007740
X+040750Y+025500
X+042000Y+025750
X+012750Y-020250
X+041250Y-002750
X+024500Y+002250
X+036260Y-007760
X+026500Y-011000
X+026500Y-027000
X+029500Y-015250
X-030250Y+014250
X-028250Y+001750
X-023000Y+001750
X-040000Y+017250
X-022250Y+009250
X+042610Y+012250
X+021750Y-010907
X-049750Y+007000
X+020500Y-016000
X+033000Y+027250
X+016250Y+021500
X+033000Y+021500
X+035500Y+026750
X+042500Y+030250
X+034750Y+029500
X-050000Y+022250
X-050500Y+017750
X-048750Y+005000
X-052250Y+005000
X-049750Y-007250
X-043500Y-009500
X-052250Y-010000
X-044000Y-010000
X-050750Y-006000
X-042000Y-006130
X-051250Y-010500
X-043000Y-007750
X-001713Y+027204
X+008500Y+027750
X+007500Y+027750
X+047000Y+003750
X+046000Y+003250
X-021750Y+013500
X-030500Y-011250
X-020750Y-003500
X-020750Y-005250
X-039250Y-001750
X-036750Y-001750
X-041750Y+010750
X-023500Y+009250
X-029250Y+010250
X-030250Y+013750
X+029500Y-014000
X-002250Y-014250
X+022750Y-014010
X+040750Y+020500
X+024250Y+016750
X-025000Y-011500
X-020250Y+013750
X-023500Y+000250
X-038250Y+012750
X-038000Y-000250
X+028750Y-014500
X+024000Y-014390
X+019000Y-008750
X-038250Y-003000
X-042140Y-003890
X-043500Y-004250
X+007750Y+023000
X+017000Y+027750
X+002750Y+016000
X+036000Y+016000
X+001750Y+016750
X-033000Y+003250
X-029500Y-003750
X-005250Y-027250
X-026250Y-025250
X+001750Y-026750
X+014750Y-020750
X+038000Y-025500
X+016000Y-023750
X+043250Y-024750
X-035000Y-004250
X-032000Y-007250
X-040500Y-002500
X-030000Y-005250
X-034250Y-004750
X-030500Y-007000
X-033250Y+002000
X-027000Y+001250
X-040500Y+010750
X-025500Y+010750
X-039250Y+009500
X-027000Y+009500
X-018000Y+011000
X-025000Y+009750
X-016000Y+009750
X-025250Y+008750
X-020000Y+006250
X-011250Y+018250
X+011250Y+017250
X-003000Y+031250
X-019250Y+010500
X-054750Y-012750
X-032500Y+034500
X-025750Y+034500
X-046250Y+031250
X-023500Y+003500
X+033250Y-032750
X-056000Y+008250
X-054750Y+022500
X-017000Y+005000
X-017000Y+007000
X-055000Y-005500
X-042250Y+013500
X-021750Y+007250
X-020750Y+007250
X-054250Y+001500
X+025250Y+032000
X+002750Y+034500
X+033000Y+031250
X-010000Y+016000
X+019000Y+031250
X+047000Y+032250
X-039750Y+032750
X-028000Y+003500
X+026000Y-031500
X+011000Y+032500
X-010750Y+033000
X-017250Y+031250
X-054250Y+015250
X-044000Y+013500
X+002345Y-029750
X-032490Y-032750
X+039750Y+033000
X+043000Y+025000
X+043500Y+013250
X+050145Y-015719
X-003000Y-030250
X-013500Y-024250
X-004750Y+012250
X-007500Y+012250
X-007500Y+006750
X-033500Y+002750
X-008225Y+007041
X-006331Y+011365
X-013310Y+011370
X-009370Y+011370
X-025250Y+005750
X-013812Y+009558
X-027500Y+005250
X-020750Y+006750
X-017000Y+003500
X-015280Y+004380
X+008500Y+001000
X+004570Y+001000
X-006750Y-004250
X+007250Y-004250
X+013283Y-001454
X-035000Y-001500
X-030500Y-001500
X-005560Y-013350
X-011220Y-012500
X-028000Y-017000
X+051750Y+006750
X+042500Y+006750
X+001250Y+027750
X+022500Y+018750
X+004710Y+018750
X+004250Y+015000
X+001170Y+015000
X+002390Y+015000
X-001310Y+014500
X-011250Y+017750
X-011250Y+017250
X-001304Y+015248
X-007500Y+016000
X-006990Y+020400
X-010572Y+020395
X-010572Y+018910
X-010402Y+017903
X-010402Y+015781
X-011750Y+015500
X-013500Y+013250
X-002250Y+013250
X-012500Y+012750
X-002000Y+012750
X+030430Y+003500
X+003750Y-026500
X+027750Y-026500
X+012000Y-013250
X+035250Y-012000
X-001825Y-020634
X-001500Y-024500
X-003250Y-020500
X-002500Y-024250
X-003750Y-021000
X+000750Y-023750
X-000500Y-018500
X-001750Y-017000
X+008500Y-017000
X+003460Y-017000
X+008390Y-015750
X-002250Y-013250
X-004490Y-016390
X+034810Y-008760
X-025750Y-004250
X+012500Y-017260
X-001250Y-020250
X-001000Y-019750
X-008849Y-013727
X+016000Y-019250
X+016970Y-019520
X+018250Y-022750
X+037316Y-017584
X+037560Y-018680
X+039307Y-014522
X+038550Y-018550
X+038550Y-016561
X+041000Y-023750
X+036456Y-019029
X+039010Y-015630
X+028110Y-019980
X+032750Y-019980
X+029130Y-023620
X+031320Y-018563
X+029013Y-018849
X+030320Y-018270
X+029400Y-018270
X+033500Y-018430
X+029809Y-004884
X+047510Y-030510
X+012123Y-019855
X+010917Y-021982
X+010917Y-019113
X+026500Y-027500
X+014250Y-027500
X+023500Y-026000
X+015000Y-026000
X+014390Y-021706
X+012510Y-024790
X+013750Y-015970
X+040500Y-024250
X-041500Y-007500
X-050750Y-013250
X-046245Y-012641
X-049234Y-013769
X-049250Y+009250
X-050750Y+009250
X-038721Y-017014
X-030152Y-013017
X-029080Y-012150
X-021000Y-025750
X-025250Y-025750
X-027830Y-022860
X-028810Y-023070
X-023000Y-020750
X-025750Y-026250
X-025580Y-019700
X-031797Y-000245
X-029597Y+004078
X-031651Y+004267
X-035250Y+005161
X-035250Y+006110
X-034500Y+010250
X-033010Y+007540
X-029750Y+005500
X-025000Y+004750
X-025250Y+004250
X-041290Y+006750
X-040300Y+008040
X-040010Y+008490
X-048750Y+029500
X-049250Y+028500
X+026250Y+014750
X-039987Y+018177
X-038500Y+025000
X-037750Y+025000
X-039023Y+011500
X-039023Y+012385
X-038537Y+016083
X-034750Y+026750
X-023500Y+027750
X-024750Y+027750
X-033250Y+026500
X-029500Y+027750
X-037025Y+020878
X-029860Y+020900
X-030500Y+027750
X-030500Y+016000
X-028000Y+013250
X-028500Y+012750
X-014250Y+000250
X-014580Y-003250
X-024500Y-001250
X-015250Y+024750
X-022750Y+023250
X-026750Y+011500
X-035750Y+011500
X-006500Y+027250
X-021500Y+026500
X-014000Y+018250
X-014000Y+016750
X-017250Y+027250
X-021200Y+027180
X-021580Y+019160
X-025210Y+018350
X-020750Y+014250
X-022750Y+019500
X-019410Y+019500
X-019410Y+017450
X+019750Y+013750
X+013000Y+003750
X-026250Y+012500
X-018610Y+014380
X-015000Y+027250
X-010250Y+027250
X-010750Y+026000
X-022000Y+025250
X-006500Y+026500
X-010750Y+025250
X+004000Y+027250
X-021137Y+024079
X+003044Y+025381
X+003073Y+026503
X+006750Y+029500
X+005450Y+020290
X-001140Y+020340
X+004470Y+020720
X-012250Y+018000
X+012250Y+026500
X-011250Y+019750
X+012960Y+019940
X-011330Y+001170
X-033750Y-000750
X+014500Y+027250
X+013972Y+020498
X-012750Y+018750
X+018500Y+026500
X+022250Y+026750
X+020437Y+026015
X+025250Y+027750
X+023907Y+026124
X+029000Y+027750
X-009000Y+019000
X+022000Y+018250
X+024750Y+022000
X+013350Y+022000
X+013350Y+019750
X-010000Y+018750
X+031188Y+026754
X+029706Y+019506
X-008750Y+018500
X+031805Y+017466
X+030424Y+017497
X+030436Y+020320
X+030424Y+022484
X+031140Y+017500
X+031140Y+020350
X+031130Y+022040
X-010000Y+017750
X+029144Y+018773
X+038250Y+015500
X+009500Y+014750
X+029000Y-007510
X+014750Y-001500
X+015150Y+000650
X+015150Y+000650
X+011500Y-024640
X+015250Y-018750
X+034380Y-013580
X+009700Y-013580
X-025283Y-002053
X-034615Y-001882
X-017500Y-008000
X+016750Y-010750
X-004500Y-025500
X-006500Y-025500
X-003500Y-024160
X-006000Y-024160
X-000298Y-015124
X+003719Y-014956
X+000000Y-019000
X+005170Y-019000
X-004000Y-015750
X+035250Y-009120
X-028996Y-020867
X-027994Y-023365
X-052250Y-003250
X-038750Y-005250
X-050000Y-014250
X-037971Y-014435
X-033262Y-014452
X-046500Y-011750
X-050750Y-009750
X-047000Y-009750
X-043750Y+009250
X-049750Y+015000
X-050000Y+020500
X-041250Y+027750
X-042250Y+028340
X-042000Y+026750
X-045500Y+027750
X-042750Y+014250
X-038970Y+014250
X-040500Y+022000
X-008000Y+022000
X-007750Y+014500
X-005750Y+014500
X-029890Y+029000
X-022583Y+030292
X-023250Y+027250
X-021905Y+027595
X-018855Y+027730
X-004970Y+027670
X-000524Y+029477
X+032126Y+020186
X+033338Y+020203
X+033340Y+022940
X+040250Y+027500
X+042500Y+026500
X+033750Y+023500
X+042500Y+015000
X+024650Y+013840
X+021560Y+013840
X+020750Y+012970
X-013260Y+010760
X+021250Y+012920
X+023250Y+012970
X+029750Y+006000
X+022750Y+006000
X+035250Y+021500
X+042250Y+021500
X+030000Y+003750
X+025339Y+012939
X+002660Y+012357
X-000640Y+012350
X+009990Y+012720
X+039116Y+012954
X+038750Y+014500
X+008000Y+010500
X+003750Y+010000
X+041000Y+014000
X+032250Y+010500
X+013750Y+010500
X+019500Y+004000
X+037500Y+010250
X+014750Y+004750
X+030500Y+010000
X+023250Y+007750
X+019000Y+006000
X+034500Y+004000
X+034500Y+002000
X+025250Y+005000
X+040750Y+005000
X+022250Y+005250
X+048750Y+005500
X+034000Y+005500
X-031980Y+007080
X+044500Y+020250
X-048070Y+019320
X-047636Y+021659
X-044490Y+020500
X-005000Y+016500
X-050500Y+023250
X-048000Y+023250
X-045310Y+021500
X+040000Y+018750
X-021000Y+023250
X-051750Y+018250
X-042206Y+020071
X-041960Y+020970
X+008500Y+000500
X+040250Y+003250
X+040250Y+008000
X+009500Y+002250
X-037230Y+000530
X-032800Y+000720
X-051750Y+004250
X-041500Y+002750
X-042283Y+004258
X-032000Y-003750
X-039530Y-003750
X-014250Y+011750
X-014250Y+013000
X+040000Y+014500
X-036250Y+011094
X-031350Y+011094
X-034500Y+012750
X-036023Y+006062
X-036053Y+003330
X+003500Y+023000
X+003500Y+021990
X+000205Y+022024
X-038510Y-016180
X+014250Y+009500
X+014260Y-018140
X-024500Y-023250
X-038750Y-025430
X+037250Y-009500
X+038250Y-009000
T02
X+024268Y-010325
X+025268Y-010325
X+026268Y-010325
X+027268Y-010325
X+028268Y-010325
X+029268Y-010325
X+030268Y-010325
X+031268Y-010325
X+033242Y-010307
X+034242Y-010307
X+035242Y-010307
X+036242Y-010307
X+037242Y-010307
X+038242Y-010307
X+039242Y-010307
X+040242Y-010307
X+038256Y+008694
X+037256Y+008694
X+036256Y+008694
X+035256Y+008694
X+034256Y+008694
X+033256Y+008694
X+032256Y+008694
X+031256Y+008694
X+029256Y+008694
X+028256Y+008694
X+027256Y+008694
X+026256Y+008694
X+025256Y+008694
X+024256Y+008694
X+023256Y+008694
X+022256Y+008694
X+041878Y-010321
X+042878Y-010321
X+043878Y-010321
X+044878Y-010321
X+045878Y-010321
X+046878Y-010321
X+047878Y-010321
X+048878Y-010321
X+045256Y+008694
X+044256Y+008694
X+043256Y+008694
X+042256Y+008694
X+041256Y+008694
X+040256Y+008694
X+021253Y-010289
X+020253Y-010289
X+021253Y-009289
X+020253Y-009289
X+021253Y-008289
X+020253Y-008289
X+021253Y-007289
X+020253Y-007289
X+021253Y-006289
X+020253Y-006289
X+021253Y-005289
X+020253Y-005289
X+021253Y-004289
X+020253Y-004289
X+021253Y-003289
X+020253Y-003289
X+021253Y-002289
X+020253Y-002289
X+021253Y-001289
X+020253Y-001289
X+021253Y-000289
X+020253Y-000289
X+021253Y+000710
X+020253Y+000710
X+021253Y+001710
X+020253Y+001710
X+021253Y+002710
X+020253Y+002710
X+021253Y+003710
X+020253Y+003710
X+021253Y+004710
X+020253Y+004710
X+021253Y+005710
X+020253Y+005710
X+021253Y+006710
X+020253Y+006710
X+007881Y-015078
X+008881Y-015078
X+009881Y-015078
X+010881Y-015078
X-013960Y-013160
X-013960Y-012160
X-013960Y-011160
X-013960Y-010160
X-027842Y-014128
X-027842Y-013128
X-027842Y-012128
X-027842Y-011128
X-027842Y-010128
X-027842Y-009128
X+050157Y-025393
X+051157Y-025393
X+052157Y-025393
X+053157Y-025393
X-021102Y+018307
X-021102Y+017307
X-021102Y+016307
X-021102Y+015307
X-022102Y+015307
X-022102Y+016307
X-022102Y+017307
X-022102Y+018307
X+003480Y-023086
X+003480Y-022086
X+002480Y-023086
X+002480Y-022086
X+001480Y-023086
X+001480Y-022086
X+000480Y-023086
X+000480Y-022086
X-000519Y-023086
X-000519Y-022086
X-001519Y-023086
X-001519Y-022086
X-002519Y-023086
X-002519Y-022086
X-003519Y-023086
X-003519Y-022086
X-004519Y-023086
X-004519Y-022086
X-005519Y-023086
X-005519Y-022086
X+039559Y-023047
X+039559Y-022047
X+038559Y-023047
X+038559Y-022047
X+037559Y-023047
X+037559Y-022047
X+036559Y-023047
X+036559Y-022047
X+035559Y-023047
X+035559Y-022047
X+034559Y-023047
X+034559Y-022047
X+033559Y-023047
X+033559Y-022047
X+032559Y-023047
X+032559Y-022047
X+031559Y-023047
X+031559Y-022047
X+030559Y-023047
X+030559Y-022047
X-023149Y-017440
X-022149Y-017440
X-021149Y-017440
X-020149Y-017440
X-047322Y-018070
X-031574Y-024645
X-047322Y-024606
X-031574Y-018031
X+048897Y+015511
X+049897Y+015511
X+050897Y+015511
X-029660Y-017240
X-029660Y-016240
X-015629Y+001551
X-016629Y+001551
X-015629Y+000551
X-016629Y+000551
X-015629Y-000448
X-016629Y-000448
X-015629Y-001448
X-016629Y-001448
X-015629Y-002448
X-016629Y-002448
X-015629Y-003448
X-016629Y-003448
X+021813Y-015173
X+022813Y-015173
X+023813Y-015173
X+024813Y-015173
X+021807Y-018730
X+022807Y-018730
X+023807Y-018730
X+024807Y-018730
X+046181Y+011574
X+046181Y+012574
X+046181Y+013574
X+046181Y+014574
X+046181Y+015574
X+046181Y+016574
X+009387Y-010167
X+008387Y-010167
X+007387Y-010167
X+006387Y-010167
X+005387Y-010167
X+004387Y-010167
X+003387Y-010167
X+002387Y-010167
X+004373Y+008834
X+005373Y+008834
X+006373Y+008834
X+007373Y+008834
X+008373Y+008834
X+009373Y+008834
X+010373Y+008834
X+011373Y+008834
X+000751Y-010181
X-000248Y-010181
X-001248Y-010181
X-002248Y-010181
X-003248Y-010181
X-004248Y-010181
X-005248Y-010181
X-006248Y-010181
X-002626Y+008834
X-001626Y+008834
X-000626Y+008834
X+000373Y+008834
X+001373Y+008834
X+002373Y+008834
X+033250Y-002290
X+032250Y-002290
X+033250Y-001290
X+032250Y-001290
X+033250Y-000290
X+032250Y-000290
X+009470Y-002170
X+010470Y-002170
X+009470Y-001170
X+010470Y-001170
X+009470Y-000170
X+010470Y-000170
X-040866Y-015236
X-041866Y-015236
X+018840Y-015170
X+017840Y-015170
X+016840Y-015170
X+015840Y-015170
X+022787Y-022519
X+023787Y-022519
X+024787Y-022519
X+025787Y-022519
X+016929Y-000283
X+016929Y+000716
X+016929Y+001716
X+016929Y+002716
X+057210Y+001711
X+057210Y+003680
X+056147Y+001239
X+056147Y+004152
T03
X+052123Y-010259
X+022733Y-010279
X+032203Y-004299
X+032203Y+006660
X+020263Y+008640
X+053425Y+031614
X+052204Y-020984
X-054566Y+031614
X+052761Y+008655
X-053890Y-029960
X+053976Y-029842
X-016771Y+019055
X+052177Y+019074
X-016732Y-021102
X+006141Y-006062
X+006141Y+004881
X-010708Y-006102
X-010708Y+004763
X-009493Y-010119
X+010426Y-004159
X+010426Y+006800
X-010131Y+008795
X+006732Y+023582
X+007204Y-025078
T04
X+047346Y-016621
X+047346Y-019771
T05
X-052204Y-025196
X-055078Y-025196
X-053661Y-023385
X+052755Y+023425
X+055629Y+023425
X+054212Y+021614
T06
X-049222Y+029978
X-045722Y+028978
X-048722Y+028978
X-046222Y+029978
X-048222Y+029978
X-046722Y+028978
X-047722Y+028978
X-047222Y+029978
X-041987Y+029978
X-038487Y+028978
X-041487Y+028978
X-038987Y+029978
X-040987Y+029978
X-039487Y+028978
X-040487Y+028978
X-039987Y+029978
X-034818Y+029978
X-031318Y+028978
X-034318Y+028978
X-031818Y+029978
X-033818Y+029978
X-032318Y+028978
X-033318Y+028978
X-032818Y+029978
X-027608Y+029972
X-024108Y+028972
X-027108Y+028972
X-024608Y+029972
X-026608Y+029972
X-025108Y+028972
X-026108Y+028972
X-025608Y+029972
X-020378Y+029972
X-016878Y+028972
X-019878Y+028972
X-017378Y+029972
X-019378Y+029972
X-017878Y+028972
X-018878Y+028972
X-018378Y+029972
X-013198Y+029972
X-009698Y+028972
X-012698Y+028972
X-010198Y+029972
X-012198Y+029972
X-010698Y+028972
X-011698Y+028972
X-011198Y+029972
X-005977Y+029978
X-002477Y+028978
X-005477Y+028978
X-002977Y+029978
X-004977Y+029978
X-003477Y+028978
X-004477Y+028978
X-003977Y+029978
X+001201Y+029973
X+004701Y+028973
X+001701Y+028973
X+004201Y+029973
X+002201Y+029973
X+003701Y+028973
X+002701Y+028973
X+003201Y+029973
X+008385Y+029979
X+011885Y+028979
X+008885Y+028979
X+011385Y+029979
X+009385Y+029979
X+010885Y+028979
X+009885Y+028979
X+010385Y+029979
X+015615Y+029982
X+019115Y+028982
X+016115Y+028982
X+018615Y+029982
X+016615Y+029982
X+018115Y+028982
X+017115Y+028982
X+017615Y+029982
X+022811Y+029968
X+026311Y+028968
X+023311Y+028968
X+025811Y+029968
X+023811Y+029968
X+025311Y+028968
X+024311Y+028968
X+024811Y+029968
X+029990Y+029982
X+033490Y+028982
X+030490Y+028982
X+032990Y+029982
X+030990Y+029982
X+032490Y+028982
X+031490Y+028982
X+031990Y+029982
X+037184Y+029978
X+040684Y+028978
X+037684Y+028978
X+040184Y+029978
X+038184Y+029978
X+039684Y+028978
X+038684Y+028978
X+039184Y+029978
X+044393Y+029972
X+047893Y+028972
X+044893Y+028972
X+047393Y+029972
X+045393Y+029972
X+046893Y+028972
X+045893Y+028972
X+046393Y+029972
X-052249Y+020817
X-051249Y+024317
X-051249Y+021317
X-052249Y+023817
X-052249Y+021817
X-051249Y+023317
X-051249Y+022317
X-052249Y+022817
X-052229Y+013534
X-051229Y+017034
X-051229Y+014034
X-052229Y+016534
X-052229Y+014534
X-051229Y+016034
X-051229Y+015034
X-052229Y+015534
X-052225Y+006356
X-051225Y+009856
X-051225Y+006856
X-052225Y+009356
X-052225Y+007356
X-051225Y+008856
X-051225Y+007856
X-052225Y+008356
X-052225Y-000841
X-051225Y+002658
X-051225Y-000341
X-052225Y+002158
X-052225Y+000158
X-051225Y+001658
X-051225Y+000658
X-052225Y+001158
X-052230Y-008093
X-051230Y-004593
X-051230Y-007593
X-052230Y-005093
X-052230Y-007093
X-051230Y-005593
X-051230Y-006593
X-052230Y-006093
X-052230Y-015291
X-051230Y-011791
X-051230Y-014791
X-052230Y-012291
X-052230Y-014291
X-051230Y-012791
X-051230Y-013791
X-052230Y-013291
X-044795Y-029097
X-048295Y-028097
X-045295Y-028097
X-047795Y-029097
X-045795Y-029097
X-047295Y-028097
X-046295Y-028097
X-046795Y-029097
X-037457Y-029094
X-040957Y-028094
X-037957Y-028094
X-040457Y-029094
X-038457Y-029094
X-039957Y-028094
X-038957Y-028094
X-039457Y-029094
X-030102Y-029092
X-033602Y-028092
X-030602Y-028092
X-033102Y-029092
X-031102Y-029092
X-032602Y-028092
X-031602Y-028092
X-032102Y-029092
X-022976Y-029088
X-026476Y-028088
X-023476Y-028088
X-025976Y-029088
X-023976Y-029088
X-025476Y-028088
X-024476Y-028088
X-024976Y-029088
X-015908Y-029104
X-019408Y-028104
X-016408Y-028104
X-018908Y-029104
X-016908Y-029104
X-018408Y-028104
X-017408Y-028104
X-017908Y-029104
X-008809Y-029099
X-012309Y-028099
X-009309Y-028099
X-011809Y-029099
X-009809Y-029099
X-011309Y-028099
X-010309Y-028099
X-010809Y-029099
X-001736Y-029081
X-005236Y-028081
X-002236Y-028081
X-004736Y-029081
X-002736Y-029081
X-004236Y-028081
X-003236Y-028081
X-003736Y-029081
X+005345Y-029109
X+001845Y-028109
X+004845Y-028109
X+002345Y-029109
X+004345Y-029109
X+002845Y-028109
X+003845Y-028109
X+003345Y-029109
X+012453Y-029109
X+008953Y-028109
X+011953Y-028109
X+009453Y-029109
X+011453Y-029109
X+009953Y-028109
X+010953Y-028109
X+010453Y-029109
X+019581Y-029101
X+016081Y-028101
X+019081Y-028101
X+016581Y-029101
X+018581Y-029101
X+017081Y-028101
X+018081Y-028101
X+017581Y-029101
X+026956Y-029104
X+023456Y-028104
X+026456Y-028104
X+023956Y-029104
X+025956Y-029104
X+024456Y-028104
X+025456Y-028104
X+024956Y-029104
X+034222Y-029080
X+030722Y-028080
X+033722Y-028080
X+031222Y-029080
X+033222Y-029080
X+031722Y-028080
X+032722Y-028080
X+032222Y-029080
X+041494Y-029102
X+037994Y-028102
X+040994Y-028102
X+038494Y-029102
X+040494Y-029102
X+038994Y-028102
X+039994Y-028102
X+039494Y-029102
X+048802Y-029102
X+045302Y-028102
X+048302Y-028102
X+045802Y-029102
X+047802Y-029102
X+046302Y-028102
X+047302Y-028102
X+046802Y-029102
X+055283Y-015464
X+054299Y-015937
X+054299Y-014952
X+055283Y-016448
X+055307Y+014456
X+054322Y+013984
X+054322Y+014968
X+055307Y+013472
T07
X-049645Y+032493
X-045197Y+032493
X-042411Y+032493
X-037962Y+032493
X-035242Y+032493
X-030793Y+032493
X-028032Y+032487
X-023583Y+032487
X-020802Y+032487
X-016353Y+032487
X-013622Y+032487
X-009173Y+032487
X-006401Y+032493
X-001952Y+032493
X+000777Y+032488
X+005226Y+032488
X+007961Y+032493
X+012410Y+032493
X+015191Y+032497
X+019640Y+032497
X+022387Y+032483
X+026836Y+032483
X+029566Y+032497
X+034015Y+032497
X+036760Y+032493
X+041209Y+032493
X+043969Y+032487
X+048418Y+032487
X-054763Y+020393
X-054763Y+024842
X-054744Y+013110
X-054744Y+017559
X-054739Y+005932
X-054739Y+010381
X-054739Y-001265
X-054739Y+003183
X-054744Y-008517
X-054744Y-004068
X-054744Y-015715
X-054744Y-011266
X-044372Y-031611
X-048820Y-031611
X-037033Y-031608
X-041482Y-031608
X-029678Y-031606
X-034127Y-031606
X-022552Y-031602
X-027001Y-031602
X-015484Y-031618
X-019933Y-031618
X-008385Y-031614
X-012834Y-031614
X-001312Y-031596
X-005761Y-031596
X+005768Y-031624
X+001320Y-031624
X+012877Y-031623
X+008428Y-031623
X+020005Y-031615
X+015556Y-031615
X+027380Y-031619
X+022931Y-031619
X+034645Y-031595
X+030197Y-031595
X+041918Y-031616
X+037470Y-031616
X+049225Y-031616
X+044777Y-031616
T08
X-044397Y+033825
X-050394Y+033831
X-037163Y+033825
X-043159Y+033831
X-029994Y+033825
X-035990Y+033831
X-022784Y+033820
X-028780Y+033826
X-015554Y+033820
X-021550Y+033826
X-008374Y+033820
X-014370Y+033826
X-001153Y+033825
X-007149Y+033831
X+006025Y+033820
X+000029Y+033826
X+013210Y+033826
X+007213Y+033832
X+020440Y+033830
X+014443Y+033836
X+027635Y+033815
X+021639Y+033821
X+034814Y+033830
X+028818Y+033836
X+042009Y+033825
X+036012Y+033831
X+049217Y+033820
X+043221Y+033826
X-056096Y+025641
X-056102Y+019645
X-056076Y+018359
X-056082Y+012362
X-056072Y+011180
X-056078Y+005184
X-056072Y+003982
X-056078Y-002013
X-056077Y-003269
X-056083Y-009265
X-056077Y-010466
X-056083Y-016463
X-045969Y+024049
X-043999Y+024049
X-042029Y+024049
X-040059Y+024049
X-038099Y+024049
X-036129Y+024049
X-034159Y+024049
X-032189Y+024049
X-030219Y+024049
X-028249Y+024049
X-026279Y+024049
X-024319Y+024049
X-018029Y+024029
X-016059Y+024029
X-014089Y+024029
X-012119Y+024029
X-010159Y+024029
X-008189Y+024029
X-006219Y+024029
X-004249Y+024029
X-002279Y+024029
X-000309Y+024029
X+001660Y+024029
X+003620Y+024029
X+009740Y+023959
X+011710Y+023959
X+013680Y+023959
X+015650Y+023959
X+017610Y+023959
X+019580Y+023959
X+021550Y+023959
X+023520Y+023959
X+025490Y+023959
X+027460Y+023959
X+029430Y+023959
X+031390Y+023959
X-045041Y+019024
X-045041Y+017054
X-045041Y+015084
X-045041Y+013114
X-045041Y+011154
X-045041Y+009184
X-045041Y+007214
X-045041Y+005244
X-045041Y+003274
X-045041Y+001304
X-045041Y-000665
X-045041Y-002625
X+036710Y+024019
X+038680Y+024019
X+040650Y+024019
X+042620Y+024019
X+044580Y+024019
X+046550Y+024019
X-045060Y-005328
X-045060Y-007298
X-045060Y-009268
X-045060Y-011238
X-045060Y-013198
X-045060Y-015168
X+052795Y+026023
X+052795Y+028023
X-051535Y-020661
X-051535Y-018661
X-049620Y-032944
X-043624Y-032950
X-042281Y-032941
X-036285Y-032947
X-034926Y-032939
X-028930Y-032945
X-027800Y-032935
X-021804Y-032941
X-020732Y-032951
X-014736Y-032957
X-013633Y-032946
X-007637Y-032952
X-006561Y-032928
X-000564Y-032934
X+000520Y-032956
X+006516Y-032962
X+007629Y-032956
X+013625Y-032962
X+014757Y-032948
X+020753Y-032954
X+022132Y-032951
X+028128Y-032957
X+029397Y-032927
X+035394Y-032933
X+036670Y-032949
X+042666Y-032955
X+043977Y-032949
X+049973Y-032955
T09
X+056267Y-018141
X+056267Y-013338
X+056291Y+011779
X+056291Y+016582
M30
