M48
INCH
T01C0.0150
T02C0.0700
T03C0.0350
T04C0.0910
T05C0.0400
T06C0.1574
T07C0.0600
T08C0.0590
%
T01
X-032440Y+002598
X-033807Y+013836
X-034308Y+016568
X-032750Y+016250
X-028385Y+009330
X-031496Y+008385
X-035108Y+016635
X-034212Y+002755
X-034629Y+010192
X-035633Y+006714
X-035393Y+002362
X-031000Y+007559
X-028988Y+009330
X-033000Y+002250
X-035000Y+008188
X-033742Y+011132
X-035300Y+013469
X-035270Y+012544
T02
X-022670Y+005834
X-022670Y+001110
X-023457Y+003472
X-017867Y+005834
X-017867Y+001110
X-022658Y+012488
X-022658Y+007763
X-023445Y+010125
X-017855Y+012488
X-017855Y+007763
T03
X-029717Y+004383
X-029245Y+003438
X-028796Y+004383
X-028339Y+003438
X-028339Y+014105
X-028812Y+015050
X-029261Y+014105
X-029717Y+015050
X-033740Y+008897
X-032740Y+005397
X-032740Y+008397
X-033740Y+005897
X-033740Y+007897
X-032740Y+006397
X-032740Y+007397
X-033740Y+006897
T04
X-031331Y+002297
X-026725Y+002336
X-026725Y+016192
X-031331Y+016152
T05
X-025354Y+001551
X-025354Y+005551
X-025433Y+008165
X-025433Y+012165
X-028028Y+007322
X-029028Y+007322
X-030028Y+007322
X-028028Y+011377
X-029028Y+011377
X-030028Y+011377
X-037500Y+013170
X-037500Y+012170
T06
X-007660Y+009242
X-010416Y+006486
X-013172Y+009242
X-010416Y+011998
T07
X-016688Y+017271
X-006688Y+017271
X-016665Y+015000
X-006665Y+015000
X-004271Y+014224
X-004271Y+004224
X-036240Y+009397
X-036241Y+004870
X-020861Y+016852
X-020861Y+014852
T08
X-037700Y+010149
X-037700Y+004047
M30
