M48
INCH
T01C0.0150
T02C0.0700
T03C0.0350
T04C0.0400
T05C0.0380
T06C0.1181
T07C0.0600
%
T01
X-031000Y+006000
X-031000Y+012250
X-033000Y+011750
X-034000Y+011750
X-035000Y+009500
X-030500Y+001250
X-030250Y+010500
X-032750Y+016250
X-032750Y+013000
X-030250Y+012500
X-033250Y+010000
X-033250Y+009000
X-035250Y+015000
X-032000Y+005250
X-035314Y+004830
X-035500Y+004000
X-037145Y+009645
X-028500Y+009250
X-033500Y+010500
X-026750Y+013500
X-026750Y+004250
X-033500Y+003500
X-033582Y+017952
X-013140Y+013550
T02
X-022670Y+005834
X-022670Y+001110
X-023457Y+003472
X-017867Y+005834
X-017867Y+001110
X-026675Y+016194
X-031281Y+016155
X-022658Y+012488
X-022658Y+007763
X-023445Y+010125
X-017855Y+012488
X-017855Y+007763
X-031342Y+002464
X-026736Y+002503
X-037795Y+009488
X-037795Y+003543
T03
X-028289Y+014108
X-028762Y+015053
X-029211Y+014108
X-029667Y+015053
X-033712Y+008330
X-032712Y+004830
X-032712Y+007830
X-033712Y+005330
X-033712Y+007330
X-032712Y+005830
X-032712Y+006830
X-033712Y+006330
X-029728Y+004551
X-029255Y+003606
X-028807Y+004551
X-028350Y+003606
X-036070Y+013866
X-035070Y+011366
X-035070Y+013366
X-036070Y+011866
X-036070Y+012866
X-035070Y+012366
T04
X-025236Y+001511
X-025236Y+005511
X-025227Y+008164
X-025227Y+012164
X-028370Y+007480
X-029370Y+007480
X-030370Y+007480
X-028354Y+011377
X-029354Y+011377
X-030354Y+011377
T05
X-036212Y+008830
X-036212Y+004330
X-037118Y+015019
X-037118Y+010295
T06
X-007266Y+009242
X-010219Y+006289
X-013172Y+009242
X-010219Y+012155
T07
X-016688Y+017271
X-006688Y+017271
X-016665Y+015000
X-006665Y+015000
X-004271Y+014224
X-004271Y+004224
X-020039Y+016968
X-020039Y+014960
M30
