M48
INCH
T01C0.0150
T02C0.0400
T03C0.1259
T04C0.0250
T05C0.0300
T06C0.0320
T07C0.0350
T08C0.1200
T09C0.0600
T10C0.1120
T11C0.0910
T12C0.0500
T13C0.0450
%
T01
X+045750Y-014250
X+045750Y-015000
X-022750Y+008000
X-022750Y+008750
X-020750Y+026750
X-009000Y+027250
X-016250Y+024250
X-029000Y+024250
X-015750Y-024500
X-001000Y-024500
X+015500Y-024500
X-004750Y-000500
X-004750Y-004000
X-004000Y-004000
X-004000Y-000250
X+041750Y+008000
X+014000Y-030250
X+054000Y+017250
X+000000Y-030250
X-031750Y+011000
X-041000Y+021000
X+049500Y-015000
X+029500Y+012000
X+029500Y+011500
X-024750Y-006750
X-042000Y+016500
X-035000Y-020500
X+046500Y+011750
X+044500Y-015750
X+053500Y-018000
X+053500Y+008750
X-040500Y+013750
X-040500Y+011750
X+013000Y+015000
X-007500Y+033250
X-021000Y+015250
X-021000Y+012000
X-021000Y+012750
X-013500Y-017500
X-010000Y-016500
X+041500Y-018250
X+041500Y-029500
X+023750Y-025750
X+024250Y+021500
X+014500Y+028250
X-002000Y+020750
X-003250Y+020000
X-023250Y-021750
X+036250Y-003250
X-047500Y+020000
X+035500Y-003000
X+021500Y+012250
X+021500Y+010250
X+015500Y+002750
X+015000Y+002750
X+034750Y-007250
X+037250Y-012500
X+035000Y-007750
X+038500Y-008500
X+039750Y+002500
X+035750Y-003750
X-045500Y+005750
X-016000Y+015000
X-041250Y-024250
X-004250Y-005750
X-046250Y+009750
X-007750Y+006250
X-007750Y+007750
X+039500Y+000750
X+032000Y-001500
X+031000Y-001250
X-027750Y-004500
X-043250Y-006500
X-042250Y-014000
X+046250Y-008250
X+046250Y-012500
X+044500Y-002000
X+043250Y-002000
X+042750Y+000250
X+040000Y+000250
X-012250Y-004500
X+030500Y-000250
X-026750Y-006000
X+045500Y-025680
X+053703Y-015301
X+017500Y-025000
X+032592Y-024796
X-021145Y-008406
X-021142Y-006601
X-006243Y-015372
X-005367Y-005618
X-040312Y-024195
X-043047Y-019450
X-043021Y-014716
X-044000Y-011740
X-036860Y-011740
X-036853Y-008768
X-043999Y-010296
X-045505Y-010212
X-043250Y+000180
X-041500Y-005000
X-040294Y-001210
X-041500Y-001240
X-039974Y+025328
X-018056Y+011655
X-018062Y+014716
X-016002Y+012148
X-011994Y+017760
X-003250Y+011823
X-013750Y+019750
X-014250Y+015250
X-005750Y+011790
X-019750Y+014250
X-019750Y+006250
X-020500Y+009500
X-005753Y+006500
X-008760Y-004494
X+053750Y-016500
X+051100Y-017100
X+053250Y-016750
X+020343Y-024750
X+036037Y-024577
X-013000Y-030500
X-007250Y-030250
X-034134Y+019475
X-034130Y+015950
X-034132Y+017558
X-034133Y+020548
X-046440Y+016656
X-004829Y-006000
X-004822Y-007437
X-003639Y-007444
X+002500Y-004250
X-007880Y-007500
X-002840Y-007090
X-020750Y-019500
X-022000Y-014490
X-015070Y+011210
X-026750Y-016250
X-021250Y+010250
X+025763Y-024070
X+019250Y-027500
X+039425Y-027783
X+032630Y-027950
X-039700Y-023220
X-005750Y-016000
X+027913Y+031446
X-010000Y+031570
X-009999Y+031590
X-010500Y+025500
X-022514Y+031730
X-028680Y+031730
X+047250Y-014250
X+046250Y-014250
X+045500Y-015750
X+044899Y-013843
X+022991Y-020960
X+015250Y-025750
X+020351Y-026082
X-025000Y-009500
X-029750Y-017500
X-028500Y-008250
X-002250Y+001500
X+004080Y+008750
X+007583Y+008930
X+022000Y+011750
X+005750Y+009840
X+031476Y+005193
X+036000Y-007350
X-004000Y+025500
X-043290Y+020290
X-005250Y+020750
X+018500Y+015000
X+018500Y+013250
X+043860Y+021984
X+038000Y+018800
X+036000Y+019500
X+035000Y+015250
X+036000Y+011750
X+043500Y-012000
X+042650Y-012000
X+044750Y-014750
X+040500Y-017550
X+025705Y-012999
X+018500Y+003750
X+029250Y-000250
X+027010Y-004000
X+026750Y-006750
X+025916Y-006750
X+033250Y-001250
X+033250Y-003750
X+039974Y-005531
X+043200Y-008810
X+010196Y-015969
X+009709Y+011455
X+028500Y+011250
X+029000Y-009000
X+030000Y-009000
X+030500Y-003500
X+019250Y+010500
X+014000Y+010500
X-005990Y-008228
X-007976Y-005597
X-006500Y-005700
X-025382Y+002602
X-035390Y+000150
X-022622Y-005390
X-030296Y+003447
X-035000Y+003000
X+043800Y-013590
X+031930Y-028500
X+004250Y+015750
X-037750Y-004000
X+012088Y-003238
X+020000Y-000708
X-010623Y-011621
X+029250Y-007250
X+029250Y-005000
X+009450Y-025450
X+039000Y-025000
X+035000Y+000000
X+024000Y+000000
X+027630Y-001298
X+027630Y-000373
X+027660Y+000440
X+024000Y+005750
X+015000Y-007000
X+032750Y-007000
X+028000Y-005500
X+029000Y-005500
X+029000Y-003750
X+031750Y-003000
X-040750Y+005500
X-045000Y+006290
X-043930Y+007870
X+021000Y+023000
X+032067Y+000461
X+012000Y+005750
X-003250Y+010250
X+043400Y-013880
X+010720Y+017295
X+039776Y-006658
X+040286Y-002563
X+042370Y-002500
X+018948Y+015737
X+018182Y+015555
X+031805Y+026400
X+031830Y+030060
X+033000Y+026230
X+021330Y+026350
X+022500Y-006750
X+026250Y-005500
X+026250Y-007500
X+028250Y-011000
X+028500Y-005250
X+027120Y-006250
X+027090Y-005210
X+030512Y-006249
X+039030Y-007750
X+036250Y-007750
X+036390Y-005120
X+035372Y-005103
X+035666Y-007486
X+037750Y-005000
X+038510Y-007060
X+041740Y-006990
X+055765Y+010658
X+055770Y+007585
X+018000Y+020000
X+018000Y+019000
X+025000Y+014000
X+028310Y+014249
X+028152Y+016052
X+039567Y+012006
X+013500Y+012500
X+023250Y+012500
X+014299Y+015383
X+016106Y+017052
X+013500Y+017250
X-031640Y+003030
X-036477Y-000666
X-037749Y-000454
X-006172Y-000075
X-012971Y+001544
X-019518Y+001542
X-023591Y+004405
X-027400Y+004405
X-027394Y+007840
X-033030Y+005570
X-039863Y+005048
X-046030Y+004790
X-045924Y+006197
X+005456Y-008411
X+005746Y-004378
X-021000Y+016250
X-021500Y-017000
X-021500Y-004500
X-045000Y-009750
X-045000Y-023743
X-043542Y-024213
X-046500Y-004500
X-012250Y-024250
X-007750Y-024000
X+002083Y-023362
X+010500Y-017750
X+022210Y-014960
X+049500Y-013250
X+052000Y-013500
X-004250Y-010750
X+001823Y-021033
X-003931Y-020818
X-022250Y-023500
X-023024Y-024550
X-030302Y-024364
X+004877Y-013352
X+024750Y-028500
X-028550Y-009890
X-025634Y-008750
X+042500Y-010750
X+045000Y-000400
X+046623Y+004046
X+045874Y+006093
X+044250Y+003250
X+044500Y-000408
X+045758Y+003617
X+048560Y-006570
X+050500Y-005000
X+039000Y-005730
X+039000Y-004500
X+047800Y+001070
X+045000Y-005250
X+054250Y+010000
X+054250Y-006250
X+041500Y+003750
X+049140Y+005250
X+049140Y+001085
X+038060Y+005100
X+044574Y+006086
X+041595Y+007228
X+027310Y+013750
X+032750Y+013750
X+035500Y+010000
X+038500Y+010000
X+038250Y+008000
X+026322Y+011087
X+022785Y+023035
X+018150Y+020850
X+039234Y+031398
X+034500Y-007750
X-001840Y-015370
X-034750Y-027020
X-003500Y-026750
X+006665Y-008945
X+006670Y-005576
X+006665Y+006710
X+009257Y+006750
X-018000Y-018500
X-019518Y-023360
X+048250Y-024940
X+050253Y-017447
X+054750Y-002410
X+057302Y-002575
X+057363Y-010311
X-005350Y-006657
X-008254Y-006754
X-025023Y+010497
X-022630Y+010620
X-013290Y+010500
X-013280Y+009750
X+017500Y+010750
X-039697Y+015111
X-044608Y+027505
X-016000Y+005990
X-017780Y+016770
X+030750Y+014250
X-010750Y-021290
X-009786Y-011573
X-004140Y-011690
X-004380Y-001750
X-023914Y+001781
X-023980Y-001140
X-000255Y-000043
X+004808Y-000034
X+010250Y-002000
X-025088Y+002282
X-025130Y-001611
X-032660Y+003240
X-039240Y-008900
X-039190Y+002690
X-039100Y-004250
X-011002Y-005906
X-008794Y-006083
X-015250Y+014250
X-014228Y+014696
X-014370Y+011650
X-013130Y+013373
X-025490Y-020940
X-006256Y+011832
X+034000Y+013500
X+037750Y+007500
X+037750Y+008250
X+034500Y+011250
X+041250Y+012750
X+036190Y+012910
X-009944Y-008227
X-018000Y+023250
X+002250Y+019500
X+002766Y+020502
X+004609Y+020465
X+027130Y-021100
X+030065Y-024109
X+033750Y-024000
X+049982Y+016018
X-038420Y+010570
X-034536Y+010920
X-036750Y+011750
X+015250Y-006250
X+012250Y-005000
X+005410Y-005000
X+004171Y+016971
X+017750Y+017500
X+047573Y+022699
X+047594Y+024243
X+046428Y+017272
X+046643Y+014569
X-043000Y+015000
X-043250Y+008000
X-028750Y-004500
X-041251Y-010045
X-041440Y-009320
X+025558Y+027021
X-044203Y+028743
X-041487Y+034982
X-032612Y+031514
X-051168Y+028335
X-051250Y+027490
X-046679Y+018405
X-046162Y+018938
X-043752Y+020961
X-032060Y-000470
X-047706Y+015880
X-041750Y+005250
X-044000Y+005500
X-055567Y+024747
X-044830Y+008046
X-043953Y+015829
X-031388Y+015114
X-030570Y+017840
X-050035Y+016511
X+014440Y-020240
X+014000Y-019750
X+014041Y-019006
X+008000Y-026000
X+025060Y-007500
X+024937Y-013422
X+040090Y-017140
X+039881Y-016496
X+036019Y-015895
X+040539Y-028329
X+033468Y-019347
X+032913Y-016624
X+034298Y-016998
X+042710Y-027050
X+042710Y-023425
X+009238Y-020965
X+014626Y-020956
X+014630Y-026070
X+046604Y-027007
X+040306Y-027423
X+030157Y-021259
X+041856Y-021604
X+042022Y-028494
X+049316Y-020480
X+050551Y-025708
X+046355Y-019025
X+042175Y-016079
X+036432Y-016692
X+040550Y-026770
X+040879Y-018702
X+039160Y-019996
X+027270Y-011720
X+026267Y-011749
X+026732Y-014803
X+047480Y-016062
X+047952Y-019173
X+046395Y-020133
X+042606Y-019678
X+029517Y-015226
X+035102Y-019296
X+039724Y-019960
X+040999Y-027990
X+031377Y-015629
X+042204Y-020223
X+042217Y-027385
X+049628Y-026998
X+040212Y-019928
X+025993Y-014505
X+026000Y-010750
X+029029Y-014870
X+041536Y-014498
X+041207Y-012735
X+037750Y-012750
X+042992Y-015000
X+042980Y-015741
X+042415Y-015148
X+030433Y-014448
X-046259Y-008806
X-046786Y-007639
X-046960Y-021740
X-045370Y-021620
X-045850Y-024250
X-005750Y-000500
X-027860Y-018820
X-029155Y-011952
X-020563Y-012856
X-007390Y-006000
X-012750Y-003750
X-045500Y-003750
X+046571Y+012814
X+047279Y+010347
X+047907Y+008750
X+049140Y-007810
X+049684Y-006414
X+049500Y+026135
X+034500Y+011750
X+026088Y+015313
X+026829Y+014960
X+032750Y+014500
X+024250Y+014250
X+019750Y+016250
X+009620Y+016010
X-029250Y+002250
X+038750Y-012000
X+035750Y-012000
X+026810Y-011250
X+038500Y-011500
X-024494Y-012560
X-012940Y-011602
X+041250Y-029000
X+056653Y-025021
X-042500Y-010270
X-031417Y+008750
X-037250Y-012250
X-007000Y+018250
X-004339Y+017503
X+044000Y-015750
X+048250Y-022000
X+044887Y-018137
X+047750Y-022500
X+015750Y-016250
X+019990Y-019250
X+015525Y-017158
X+011250Y-010500
X+014000Y-010750
X+014000Y-014980
X+014000Y-016054
X+020663Y-020637
X+037695Y-020263
X+040000Y-030500
X+049850Y-023820
X+054460Y-019530
X+040410Y+009490
X+049000Y-012090
X+047750Y-010000
X+019293Y-007249
X+022240Y-005000
X+023720Y-013320
X+034250Y-013750
X+034500Y-012250
X+024866Y-012371
X+024080Y-008250
X+022550Y-008250
X+020537Y-006131
X+021420Y-005170
X+022500Y-013000
X+042000Y-003000
X+042500Y-004728
X+040071Y-004467
X+027960Y-005060
X+015000Y-008250
X+026420Y-008710
X+027182Y-009265
X+031996Y-007459
X+032000Y-008500
X+023000Y-009000
X+027648Y-008436
X+027650Y-008435
X+041000Y-009000
X+042750Y-002000
X+031000Y-012000
X+033500Y-007250
X+035000Y-008650
X+030008Y-007459
X+030000Y-008250
X+041750Y-008250
X+044410Y-005580
X+045000Y-004250
X+037490Y-003063
X+037217Y-003843
X+039605Y-003519
X+035029Y-001755
X+038956Y-001962
X+011683Y-009103
X+010005Y-009110
X+018500Y-020090
X+012250Y-004250
X+009500Y-004250
X+017935Y-020584
X+038228Y-020118
X+043084Y-016784
X+044790Y-016800
X+046680Y-000040
X+019291Y-020590
X+025718Y-020241
X+002535Y-011965
X+010500Y-013000
X-031000Y-020750
X+018250Y-013000
X+019102Y-000400
X+020996Y-000395
X+008250Y+000477
X+036500Y-005750
X+036250Y-006750
X+033750Y+001000
X+032580Y+002600
X+026900Y+002250
X+019250Y+002250
X+019250Y+004000
X+015500Y+004250
X+026500Y+003500
X+032250Y+003000
X+031500Y+003250
X+039750Y-001000
X+037600Y-000500
X+037450Y-000957
X+039470Y-000330
X+030999Y-008751
X+030567Y-005745
X+032250Y-003750
X+032502Y-005495
X+032444Y-005059
X+046315Y+001061
X+043890Y+001050
X+039250Y-009000
X+033879Y-008747
X+033880Y-012000
X+032980Y-012000
X+041730Y+001120
X+036500Y+000500
X+042250Y+001120
X+048329Y+000042
X+048450Y-002400
X+039750Y+002000
X+041730Y+001590
X+042250Y+001670
X+041822Y+002499
X+037222Y+005798
X+025373Y+015107
X+024825Y+012550
X+033293Y+013425
X-003750Y-027500
X+005943Y-008918
X+006071Y-005575
X+006728Y+012573
X+021000Y+012250
X+024770Y+013140
X+031574Y+013334
X+032465Y+010401
X+032250Y+005250
X+032000Y+011250
X-029500Y+008250
X+009440Y+008000
X+009430Y+012000
X+023500Y+012000
X+023500Y+010250
X+029956Y+010060
X+028463Y+005270
X+031920Y+009480
X+028750Y+007750
X+028790Y+005910
X+035500Y+004750
X+034250Y+010000
X+026847Y+013897
X+033250Y+006180
X+024750Y+011000
X+026366Y+012960
X+032916Y+012972
X+034500Y+003250
X+032750Y+006880
X+030500Y+006870
X+037475Y+006775
X+040217Y+013737
X+035470Y+006470
X+035156Y+006213
X+033500Y+005603
X+029250Y+006750
X+031250Y+020000
X+029250Y+010000
X+029500Y+007500
X+015387Y-006658
X+015799Y-006749
X+023630Y-004530
X+023750Y-004000
X+027380Y-002000
X+029250Y-002000
X+035352Y-007974
X+025693Y-008250
X+023506Y-006054
X+015500Y-005750
X+016100Y-005164
X+016090Y-004440
X+015854Y-007474
X+021000Y-002750
X+017840Y-002820
X+031500Y-001000
X+029000Y-001000
X+018250Y+000750
X+017810Y-000555
X+029290Y+004130
X+023500Y+006500
X+026000Y-003250
X+022750Y+003500
X+022750Y+012270
X+023132Y-026249
X+020500Y+004000
X+020500Y-001125
X+023500Y+004750
X+022750Y+004760
X+027458Y+004722
X+032000Y+004750
X+027135Y+004337
X+025034Y+004486
X+021248Y+004656
X+030350Y+005030
X+026967Y+005751
X+026810Y+004890
X+017750Y+004500
X+033350Y+003350
X+027990Y+004500
X+028500Y+010750
X+028250Y+003750
X+031000Y+019000
X+021000Y+007500
X+021250Y+005750
X+020130Y+013120
X+015000Y+013000
X+024000Y+007500
X+023250Y+007500
X+023250Y-003250
X+027250Y+003250
X+025850Y+003490
X+027682Y+017819
X+018000Y+003000
X+018000Y+008250
X+036500Y+002000
X+030500Y+002500
X+027720Y+002500
X+016460Y+002500
X+025000Y+001710
X+027250Y+001740
X+022500Y-000500
X+022000Y+003250
X+026250Y+005500
X+019250Y+005500
X+017744Y+001810
X+022500Y+002750
X+025880Y+002750
X+030890Y+002000
X+031262Y+002310
X+028580Y+002250
X+020000Y+002000
X+030526Y+001385
X+027655Y+001441
X+028659Y+000464
X+033355Y+000525
X+031079Y+000459
X+028806Y-000426
X+028500Y-003000
X+012110Y-002180
X+043500Y+000250
X+045750Y+000250
X+045750Y-001500
X+035750Y+002750
X+034540Y+002680
X+027500Y+004000
X+022199Y+004302
X+022500Y-006000
X+038300Y+012060
X+039000Y+008750
X+039000Y+004050
X+035730Y+003230
X+039430Y+008760
X+037941Y+003811
X+035500Y+001750
X+015930Y+001170
X+028250Y+001250
X+031430Y+001269
X+032250Y+001250
X+028586Y+000952
X+017389Y+000846
X+036250Y+001000
X+032750Y-001250
X+035917Y-000895
X+039056Y-000693
X+033259Y-000294
X+035320Y-000493
X+034000Y-001250
X+036250Y-001500
X+034050Y-003580
X+029250Y-004250
X+018710Y-004310
X+045000Y-002250
X+040909Y-002093
X+034787Y-003620
X+029000Y-002500
X+028250Y-002250
X+028250Y-009000
X+036250Y-003750
X+040420Y-004010
X+043007Y-006650
X+047154Y-007623
X+049105Y+013720
X+047847Y+012936
X+047556Y+009672
X+048244Y+008062
X+047950Y-004790
X+045937Y-005508
X+045930Y-007310
X+042080Y-007766
X+042996Y-007639
X+045360Y-008640
X+034265Y-008707
X+042000Y-008750
X+042750Y-009250
X+053554Y-009475
X+053400Y-004775
X+033000Y-007390
X+032639Y-008913
X+041750Y-009250
X+043750Y-007250
X+027964Y-011633
X+047250Y-012500
X+047640Y-004403
X+036260Y-006190
X+039788Y-007302
X+041252Y-007308
X+042000Y-003620
X+038870Y-006460
X+048222Y-005627
X+048735Y+003581
X+032138Y-003258
X+031350Y-002250
X+030146Y-004201
X+031500Y-003750
X+016600Y+013500
X+018000Y+013500
X+015750Y+006250
X+021750Y+006340
X+021456Y-013394
X+040750Y-016790
X+040750Y-012520
X+039000Y-012520
X+031046Y-010776
X+032250Y-006750
X+030750Y-009250
X+041750Y-011000
X+046750Y-003420
X+046750Y-011250
X+028960Y-010990
X+046000Y-003250
X+046000Y-004000
X+050500Y-004000
X+053620Y-010790
X+055770Y-031570
X+033630Y+007620
X+031500Y+007750
X+033699Y+025903
X+007042Y+025204
X+006740Y+022491
X+000580Y+023020
X-005000Y+022500
X+000500Y+019750
X+000715Y+020565
X-006980Y+020250
X-005377Y+017242
X-013126Y+026282
X-025610Y+026310
X-008000Y+020500
X-027182Y+028435
X-037210Y+030510
X-041202Y+030259
X-001250Y+026060
X+012250Y-012000
X+024000Y-012000
X+011570Y+028490
X-029500Y-023670
X-027750Y-026500
X+005996Y-019544
X+008140Y-017850
X+001113Y-026599
X-007500Y-026000
X-006121Y-026371
X+044541Y-026249
X+044543Y-029440
X-023500Y-030000
X-023500Y-023250
X+009980Y-022770
X+009810Y-025030
X+010130Y-023820
X+010390Y-024610
X+033250Y+005000
X+043750Y+006500
X+054500Y+006750
X+057302Y-001256
X+057836Y-010413
X+057446Y-029799
X+017250Y-021220
X+007450Y-030120
X-025250Y-025000
X-009580Y-025000
X-026500Y-016750
X-026500Y-021430
X+034992Y-005080
X+031540Y-005470
X+024026Y-006029
X+023388Y-005145
X+018574Y-004680
X+011024Y+016110
X+012786Y+016255
X+022469Y+028880
X+035940Y+029037
X-052920Y-013770
X+035000Y-012250
X-038920Y+021550
X-002633Y+012530
X+005100Y+012180
X+005090Y+002002
X+018500Y+007250
X+032500Y+006250
X+032500Y+004750
X+026690Y+007860
X+036000Y+008000
X+034950Y+007700
X+046250Y+000500
X+048000Y+000500
X+048825Y+006585
X+037660Y+000750
X+040500Y+001500
X+037500Y+001750
X+040750Y+002000
X+047118Y+004994
X+021750Y-001500
X+027040Y-002480
X+027020Y-000730
X+051840Y+024900
X+051830Y+024010
X+053000Y+010500
X+055023Y+010800
X+055172Y+029004
X+051839Y+029030
X+057471Y+021407
X+054584Y-008972
X+049620Y-010314
X+049590Y-008290
X+049064Y-006653
X+049197Y-010804
X+054674Y-009490
X+057977Y+015918
X+046492Y+018673
X+045577Y+019591
X+052060Y-017500
X+050210Y-011980
X+050200Y+007570
X+039120Y-011430
X+053000Y-014000
X+030500Y-001250
X+031640Y-011615
X+053470Y-014500
X+031750Y-006500
X+031750Y-009250
X+053412Y-011337
X+052940Y-011705
X+049890Y-011610
X+039750Y+007750
X+043004Y+007686
X+048805Y+007726
X+052048Y-015670
X+052780Y-015670
X+051175Y-018214
X+032588Y-014340
X+041313Y-016875
X+041194Y-014695
X+027846Y-019420
X+035093Y-018879
X+015520Y-014000
X+054885Y-019485
X+049560Y-021690
X+021750Y-026000
X+019766Y-015940
X+019280Y-014300
X+020147Y-014146
X+019300Y-013770
X-003750Y-012260
X+020500Y-012500
X+020500Y-013320
X+019290Y-015170
X+019500Y+000250
X+020500Y-009000
X+021250Y-009000
X+020107Y-013234
X+024069Y-012777
X+023000Y+008750
X+017000Y-013250
X-048390Y+016563
X-049570Y+018330
X-052366Y+026181
X-052920Y+020030
X-052925Y+021197
X-046919Y+024756
X-043255Y+022065
X-044714Y+023199
X-046750Y+025950
X+008750Y-012200
X+004571Y-015333
X+004570Y-016690
X-019250Y-015750
X-021000Y-022920
X-014656Y-022311
X-008400Y-021290
X-004927Y-020812
X-004960Y-019310
X-014215Y-022687
X-005860Y-004050
X-005250Y-001500
X-002250Y+005725
X-016069Y+005244
X-020010Y+006630
X-020000Y+011300
X+002095Y+013095
X-014000Y+017500
X+003250Y+006750
X-004250Y+014360
X+007250Y+018000
X+004000Y+019250
X+020000Y-005250
X+033270Y+010420
X+035250Y+010750
X+040100Y+004390
X+033750Y+003000
X+030250Y+016000
X+019690Y+014000
X+006000Y+013750
X+006000Y-002250
X-024235Y+002160
X-024270Y-003460
X+003745Y+001047
X+004512Y+001052
X+004410Y+008400
X+012000Y+008250
X+016670Y+015030
X+006676Y+013720
X+006280Y+010170
X-029566Y+009280
X+016865Y+017505
X+019000Y+007750
X+012750Y+007750
X-029750Y+007500
X-031624Y+007503
X-013750Y+027750
X-034693Y+023730
X+000000Y+022170
X+010440Y-011740
X+023000Y-011750
X-004200Y+022920
X+009281Y+016513
X+010893Y+016793
X+012715Y+016817
X+039117Y+011750
X+041110Y+009110
X+041000Y+003120
X+040440Y+003335
X+041358Y+008523
X+041500Y-007750
X+042830Y-007103
X+047970Y-006800
X+049490Y+001590
X-034500Y+000750
X+010750Y+001500
X+010040Y+011240
X+020500Y+011250
X+020250Y-008000
X+027000Y-008000
X+027250Y-006750
X+030000Y-006750
X-030114Y+007147
X-020997Y+005700
X-006500Y+027500
X+000250Y+027250
X-020500Y-008100
X-010836Y-005292
X-014482Y-005790
X-030390Y-005750
X-030380Y-000680
X-020810Y-007310
X-014500Y-006500
X-030448Y+010873
X-043407Y+017342
X-025750Y+003250
X+012250Y+001750
X+015000Y+001500
X+022000Y+001720
X+022000Y-000750
X-024250Y-005000
X-027957Y+004286
X-045187Y+016160
X-048149Y+015133
X+016500Y+005250
X+017500Y+005250
X+017510Y+009750
X+019750Y+009750
X+024500Y+013500
X+030500Y+013500
X+030500Y+017110
X+043558Y+012624
X+045242Y+005630
X+018000Y+010250
X+011500Y+010250
X+011500Y+008000
X-027884Y+007250
X-036951Y+017033
X-036900Y+020460
X+011103Y+007658
X+004250Y+017440
X-003750Y-006250
X+002850Y+012600
X+002425Y+006682
X+030017Y+022310
X+056120Y+009250
X+055765Y+029380
X+025750Y+019790
X+024500Y+001440
X+038857Y+021385
T02
X+016956Y-009960
X+017956Y-009960
X+018956Y-009960
X+019956Y-009960
X+020956Y-009960
X+021956Y-009960
X+022956Y-009960
X+023956Y-009960
X+025963Y-009960
X+026963Y-009960
X+027963Y-009960
X+028963Y-009960
X+029963Y-009960
X+030963Y-009960
X+031963Y-009960
X+032963Y-009960
X+030968Y+008971
X+029968Y+008971
X+028968Y+008971
X+027968Y+008971
X+026968Y+008971
X+025968Y+008971
X+024968Y+008971
X+023968Y+008971
X+022008Y+008971
X+021008Y+008971
X+020008Y+008971
X+019008Y+008971
X+018008Y+008971
X+017008Y+008971
X+016008Y+008971
X+015008Y+008971
X+037938Y+008971
X+036938Y+008971
X+035938Y+008971
X+034938Y+008971
X+033938Y+008971
X+032938Y+008971
X+014051Y-009997
X+013051Y-009997
X+014051Y-008997
X+013051Y-008997
X+014051Y-007997
X+013051Y-007997
X+014051Y-006997
X+013051Y-006997
X+014051Y-005997
X+013051Y-005997
X+014051Y-004997
X+013051Y-004997
X+014051Y-003997
X+013051Y-003997
X+014051Y-002997
X+013051Y-002997
X+014051Y-001997
X+013051Y-001997
X+014051Y-000997
X+013051Y-000997
X+014051Y+000002
X+013051Y+000002
X+014051Y+001002
X+013051Y+001002
X+014051Y+002002
X+013051Y+002002
X+014051Y+003002
X+013051Y+003002
X+014051Y+004002
X+013051Y+004002
X+014051Y+005002
X+013051Y+005002
X+014051Y+006002
X+013051Y+006002
X+014051Y+007002
X+013051Y+007002
X+001988Y+008956
X+000988Y+008956
X-000011Y+008956
X-001011Y+008956
X-002011Y+008956
X-003011Y+008956
X-004011Y+008956
X-005011Y+008956
X-003018Y-009973
X-002018Y-009973
X-001018Y-009973
X-000018Y-009973
X+000981Y-009973
X+001981Y-009973
X+002981Y-009973
X+003981Y-009973
X-006521Y+008956
X-007521Y+008956
X-008521Y+008956
X-009521Y+008956
X-010521Y+008956
X-011521Y+008956
X-012521Y+008956
X-013521Y+008956
X-009998Y-009973
X-008998Y-009973
X-007998Y-009973
X-006998Y-009973
X-005998Y-009973
X-004998Y-009973
X+002028Y+000961
X+003028Y+000961
X+002028Y-000038
X+003028Y-000038
X+002028Y-001038
X+003028Y-001038
X+057070Y+023374
X+057070Y+026516
X+034498Y-009960
X+035498Y-009960
X+036498Y-009960
X+037498Y-009960
X+038498Y-009960
X+039498Y-009960
X+040498Y-009960
X+041498Y-009960
X+042498Y-009960
X+043498Y-009960
X+052148Y+008585
X+052148Y+007585
X+052148Y+006585
X+052148Y+005585
X+052148Y+004585
X+052148Y+003585
X+052148Y+002585
X+052148Y+001585
X+052148Y+000585
X+052148Y-000414
X+052148Y-001414
X+052148Y-002414
X+052148Y-003414
X+052148Y-004414
X+052148Y-005414
X+052148Y-006414
X+052148Y-007414
X+052148Y-008414
X+052148Y-009414
X+052148Y-010414
X+051148Y+008585
X+051148Y+007585
X+051148Y+006585
X+051148Y+005585
X+051148Y+004585
X+051148Y+003585
X+051148Y+002585
X+051148Y+001585
X+051148Y+000585
X+051148Y-000414
X+051148Y-001414
X+051148Y-002414
X+051148Y-003414
X+051148Y-004414
X+051148Y-005414
X+051148Y-006414
X+051148Y-007414
X+051148Y-008414
X+051148Y-009414
X+051148Y-010414
X+030206Y+018846
X+029206Y+018846
X-015840Y-013916
X-014840Y-013916
X-013840Y-013916
X-012840Y-013916
X-011840Y-013916
X-010840Y-013916
X-009840Y-013916
X-008840Y-013916
X-007840Y-013916
X-006840Y-013916
X-005840Y-013916
X-004840Y-013916
X-003840Y-013916
X-002840Y-013916
X-001840Y-013916
X-000840Y-013916
X+000160Y-013916
X+001160Y-013916
X+002160Y-013916
X+003160Y-013916
X-050400Y-014471
X-049400Y-014471
X-050400Y-015471
X-049400Y-015471
X-050400Y-016471
X-049400Y-016471
X-050400Y-017471
X-049400Y-017471
X-050400Y-018471
X-049400Y-018471
X-050400Y-019471
X-049400Y-019471
X-050400Y-020471
X-049400Y-020471
X-050400Y-021471
X-049400Y-021471
X-050400Y-022471
X-049400Y-022471
X-050400Y-023471
X-049400Y-023471
X-050400Y+015074
X-049400Y+015074
X-050400Y+014074
X-049400Y+014074
X-050400Y+013074
X-049400Y+013074
X-050400Y+012074
X-049400Y+012074
X-050400Y+011074
X-049400Y+011074
X-050400Y+010074
X-049400Y+010074
X-050400Y+009074
X-049400Y+009074
X-050400Y+008074
X-049400Y+008074
X-050400Y+007074
X-049400Y+007074
X-050400Y+006074
X-049400Y+006074
X-050400Y+000238
X-049400Y+000238
X-050400Y-000761
X-049400Y-000761
X-050400Y-001761
X-049400Y-001761
X-050400Y-002761
X-049400Y-002761
X-050400Y-003761
X-049400Y-003761
X-050400Y-004761
X-049400Y-004761
X-050400Y-005761
X-049400Y-005761
X-050400Y-006761
X-049400Y-006761
X-050400Y-007761
X-049400Y-007761
X-050400Y-008761
X-049400Y-008761
X+025921Y-002000
X+024921Y-002000
X+025921Y-001000
X+024921Y-001000
X+025921Y+000000
X+024921Y+000000
X+039227Y-014167
X+039227Y-015167
X+038227Y-014167
X+038227Y-015167
X+037227Y-014167
X+037227Y-015167
X+048750Y+018452
X+048750Y+011760
X+033001Y+011760
X+033001Y+018452
X+029251Y+016929
X+029251Y+014960
X-028734Y+022838
X-025191Y+022838
X-025191Y+016933
X-030124Y+014123
X-030124Y+015123
X-028734Y+016933
X-032401Y+009421
X-030433Y+009421
X+041964Y+026346
X+043933Y+026346
X-036407Y+001425
X-036407Y+002425
X-036407Y+003425
X-036407Y+004425
X-037407Y+004425
X-037407Y+003425
X-037407Y+002425
X-037407Y+001425
X+056015Y-033856
X+054213Y-033866
X-007007Y-019692
X-007007Y-018692
X-007007Y-017692
X-007007Y-016692
X+023173Y-014724
X+023173Y-015724
X+023173Y-016724
X+023173Y-017724
X+024173Y-017724
X+024173Y-016724
X+024173Y-015724
X+024173Y-014724
X+015520Y+018050
X+014230Y+018070
X-027182Y+002375
X-026182Y+002375
X-027182Y+001375
X-026182Y+001375
X-027182Y+000375
X-026182Y+000375
X-027182Y-000624
X-026182Y-000624
X-027182Y-001624
X-026182Y-001624
X-027182Y-002624
X-026182Y-002624
X-013354Y-002794
X-012354Y-002794
X-011354Y-002794
X-010354Y-002794
X-009354Y-002794
X-008354Y-002794
X-007354Y-002794
X-006354Y-002794
X-012992Y+018914
X-011992Y+018914
X-010992Y+018914
X-009992Y+018914
X-012992Y+015604
X-011992Y+015604
X-010992Y+015604
X-009992Y+015604
X-038264Y+027154
X-039264Y+027154
X-040264Y+027154
X-022900Y+001010
X-022900Y+000010
X-022900Y-000990
X-022900Y-001990
X-022900Y-002990
X-021900Y-002990
X-021900Y-001990
X-021900Y-000990
X-021900Y+000010
X-021900Y+001010
X-006370Y-012570
X-007370Y-012570
X+026514Y-016244
X+026514Y-017244
X+026514Y-018244
X+027544Y-016244
X+027544Y-017244
X+027544Y-018244
X+029420Y-016260
X+029420Y-017260
X+029420Y-018260
X+030400Y-016260
X+030400Y-017260
X+030400Y-018260
X-053380Y+035560
X-054380Y+035560
X-055380Y+035560
T03
X+044921Y-009967
X+015531Y-009987
X+025001Y-004007
X+025001Y+006952
X+013061Y+008932
X+053984Y+031457
X+052165Y-021102
X-053890Y+031457
X+045560Y+008946
X-053890Y-029960
X+053984Y-029960
X-016732Y+019251
X+052165Y+019310
X-016732Y-021102
X-000974Y-005902
X-018100Y+005121
X-018100Y-005902
X-016884Y+008980
X+003035Y+003020
X+003010Y-007980
X-017523Y-009934
X+012992Y-024842
X+012992Y+026338
X+007585Y-014113
X+007585Y+011476
X-027060Y+011476
X-027060Y-014113
X-000974Y+005121
T04
X+043888Y-005228
X+043388Y-005228
X+043888Y-004728
X+043388Y-004728
X+043888Y-004228
X+043388Y-004228
X+043888Y-003728
X+043388Y-003728
X+043888Y-003228
X+043388Y-003228
T05
X+056140Y-008500
X+056140Y-006500
X+056140Y-007500
X-031870Y-018870
X-031870Y-019870
X-031870Y-020870
X-037775Y-020870
X-037775Y-018870
X-035928Y+025732
X-034928Y+025732
X-033928Y+025732
X-032928Y+025732
X-032928Y+028732
X-033928Y+028732
X-034928Y+028732
X-035928Y+028732
X-038290Y-002100
X-037290Y-002100
X+039842Y+017358
X+039842Y+016358
X+039842Y+015358
X+039842Y+014358
X+036842Y+014358
X+036842Y+015358
X+036842Y+016358
X+036842Y+017358
X-055402Y+001430
X-054402Y+001430
X-055402Y-013390
X-054402Y-013390
X-055402Y-009780
X-054402Y-009780
X-055402Y+005100
X-054402Y+005100
X-023235Y+021540
X-023235Y+020540
X-020235Y+020540
X-020235Y+021540
X-023225Y+018940
X-023225Y+017940
X-020225Y+017940
X-020225Y+018940
T06
X+056207Y-012079
X+056207Y-014047
X+056206Y-017569
X+056206Y-019537
X-041220Y+024251
X-041614Y+023464
X-042007Y+024251
X-042401Y+023464
X-056210Y+027700
X-034820Y-007450
T07
X+037939Y+030598
X+034439Y+029598
X+037439Y+029598
X+034939Y+030598
X+036939Y+030598
X+035439Y+029598
X+036439Y+029598
X+035939Y+030598
X+030709Y+030598
X+027209Y+029598
X+030209Y+029598
X+027709Y+030598
X+029709Y+030598
X+028209Y+029598
X+029209Y+029598
X+028709Y+030598
X+023469Y+030598
X+019969Y+029598
X+022969Y+029598
X+020469Y+030598
X+022469Y+030598
X+020969Y+029598
X+021969Y+029598
X+021469Y+030598
X+016219Y+030598
X+012719Y+029598
X+015719Y+029598
X+013219Y+030598
X+015219Y+030598
X+013719Y+029598
X+014719Y+029598
X+014219Y+030598
X+008979Y+030598
X+005479Y+029598
X+008479Y+029598
X+005979Y+030598
X+007979Y+030598
X+006479Y+029598
X+007479Y+029598
X+006979Y+030598
X+001739Y+030598
X-001760Y+029598
X+001239Y+029598
X-001260Y+030598
X+000739Y+030598
X-000760Y+029598
X+000239Y+029598
X-000260Y+030598
X-005500Y+030598
X-009000Y+029598
X-006000Y+029598
X-008500Y+030598
X-006500Y+030598
X-008000Y+029598
X-007000Y+029598
X-007500Y+030598
X-012737Y+030598
X-016237Y+029598
X-013237Y+029598
X-015737Y+030598
X-013737Y+030598
X-015237Y+029598
X-014237Y+029598
X-014737Y+030598
X-030239Y-028981
X-026739Y-027981
X-029739Y-027981
X-027239Y-028981
X-029239Y-028981
X-027739Y-027981
X-028739Y-027981
X-028239Y-028981
X-022991Y-028981
X-019491Y-027981
X-022491Y-027981
X-019991Y-028981
X-021991Y-028981
X-020491Y-027981
X-021491Y-027981
X-020991Y-028981
X-008621Y-028981
X-005121Y-027981
X-008121Y-027981
X-005621Y-028981
X-007621Y-028981
X-006121Y-027981
X-007121Y-027981
X-006621Y-028981
X-001387Y-028981
X+002112Y-027981
X-000887Y-027981
X+001612Y-028981
X-000387Y-028981
X+001112Y-027981
X+000112Y-027981
X+000612Y-028981
X+005855Y-028981
X+009355Y-027981
X+006355Y-027981
X+008855Y-028981
X+006855Y-028981
X+008355Y-027981
X+007355Y-027981
X+007855Y-028981
X+013109Y-028961
X+016609Y-027961
X+013609Y-027961
X+016109Y-028961
X+014109Y-028961
X+015609Y-027961
X+014609Y-027961
X+015109Y-028961
X+020343Y-028961
X+023843Y-027961
X+020843Y-027961
X+023343Y-028961
X+021343Y-028961
X+022843Y-027961
X+021843Y-027961
X+022343Y-028961
X-015741Y-028981
X-012241Y-027981
X-015241Y-027981
X-012741Y-028981
X-014741Y-028981
X-013241Y-027981
X-014241Y-027981
X-013741Y-028981
X-019977Y+030598
X-023477Y+029598
X-020477Y+029598
X-022977Y+030598
X-020977Y+030598
X-022477Y+029598
X-021477Y+029598
X-021977Y+030598
X-027220Y+030598
X-030720Y+029598
X-027720Y+029598
X-030220Y+030598
X-028220Y+030598
X-029720Y+029598
X-028720Y+029598
X-029220Y+030598
X+027587Y-028961
X+031087Y-027961
X+028087Y-027961
X+030587Y-028961
X+028587Y-028961
X+030087Y-027961
X+029087Y-027961
X+029587Y-028961
X+034827Y-028961
X+038327Y-027961
X+035327Y-027961
X+037827Y-028961
X+035827Y-028961
X+037327Y-027961
X+036327Y-027961
X+036827Y-028961
X-035451Y-031400
X-034978Y-030415
X-035962Y-030415
X-034466Y-031400
X-041941Y-031400
X-041468Y-030415
X-042452Y-030415
X-040956Y-031400
X-048281Y-031400
X-047808Y-030415
X-048792Y-030415
X-047296Y-031400
X+043311Y+033000
X+042838Y+032015
X+043822Y+032015
X+042326Y+033000
X+043150Y-031370
X+043622Y-030385
X+042638Y-030385
X+044134Y-031370
X-041658Y+032980
X-042131Y+031995
X-041147Y+031995
X-042643Y+032980
X-035510Y+032980
X-035982Y+031995
X-034998Y+031995
X-036494Y+032980
X-047770Y+032980
X-048242Y+031995
X-047258Y+031995
X-048754Y+032980
X+049510Y+033020
X+049037Y+032035
X+050021Y+032035
X+048525Y+033020
X+049302Y-031375
X+049775Y-030391
X+048791Y-030391
X+050287Y-031375
X-054620Y+010064
X-053636Y+009591
X-053636Y+010575
X-054620Y+009079
X-054620Y-004052
X-053636Y-004525
X-053636Y-003541
X-054620Y-005037
X-054620Y-018825
X-053636Y-019298
X-053636Y-018314
X-054620Y-019810
X-054620Y-024905
X-053636Y-025378
X-053636Y-024394
X-054620Y-025890
X-054610Y+016350
X-053625Y+015877
X-053625Y+016861
X-054610Y+015365
X+052870Y-027250
X+051870Y-023750
X+051870Y-026750
X+052870Y-024250
X+052870Y-026250
X+051870Y-024750
X+051870Y-025750
X+052870Y-025250
T08
X+038363Y+033112
X+033914Y+033112
X+031133Y+033112
X+026684Y+033112
X+023893Y+033112
X+019444Y+033112
X+016643Y+033112
X+012194Y+033112
X+009403Y+033112
X+004954Y+033112
X+002163Y+033112
X-002285Y+033112
X-005076Y+033112
X-009525Y+033112
X-012313Y+033112
X-016762Y+033112
X-030663Y-031496
X-026214Y-031496
X-023415Y-031496
X-018966Y-031496
X-009045Y-031496
X-004596Y-031496
X-001811Y-031496
X+002637Y-031496
X+005431Y-031496
X+009880Y-031496
X+012685Y-031476
X+017134Y-031476
X+019919Y-031476
X+024368Y-031476
X-016165Y-031496
X-011716Y-031496
X-019553Y+033112
X-024002Y+033112
X-026796Y+033112
X-031244Y+033112
X+027163Y-031476
X+031612Y-031476
X+034403Y-031476
X+038852Y-031476
X+055384Y-027673
X+055384Y-023225
T09
X+033115Y+034445
X+039111Y+034451
X+025885Y+034445
X+031881Y+034451
X+018645Y+034445
X+024641Y+034451
X+011395Y+034445
X+017391Y+034451
X+004155Y+034445
X+010151Y+034451
X-003084Y+034445
X+002911Y+034451
X-010324Y+034445
X-004328Y+034451
X-017561Y+034445
X-011565Y+034451
X-025415Y-032828
X-031411Y-032834
X-018167Y-032828
X-024163Y-032834
X-003797Y-032828
X-009793Y-032834
X+003436Y-032828
X-002559Y-032834
X+010679Y-032828
X+004683Y-032834
X+017933Y-032808
X+011937Y-032814
X+025167Y-032808
X+019171Y-032814
X-010917Y-032828
X-016913Y-032834
X-024801Y+034445
X-018805Y+034451
X-032044Y+034445
X-026048Y+034451
X+032411Y-032808
X+026415Y-032814
X+039651Y-032808
X+033655Y-032814
X+056560Y+017410
X+056560Y+019410
X+037890Y+024347
X+035920Y+024347
X+033950Y+024347
X+031980Y+024347
X+030020Y+024347
X+028050Y+024347
X+026080Y+024347
X+024110Y+024347
X+022140Y+024347
X+020170Y+024347
X+018200Y+024347
X+016240Y+024347
X+009723Y+024347
X+007753Y+024347
X+005783Y+024347
X+003813Y+024347
X+001853Y+024347
X-000116Y+024347
X-002086Y+024347
X-004056Y+024347
X-006026Y+024347
X-007996Y+024347
X-009966Y+024347
X-011926Y+024347
X-012737Y-022577
X-010767Y-022577
X-008797Y-022577
X-006827Y-022577
X-004867Y-022577
X-002897Y-022577
X-000927Y-022577
X+001042Y-022577
X+003012Y-022577
X+004982Y-022577
X+006952Y-022577
X+008912Y-022577
X+016304Y-022577
X+018274Y-022577
X+020244Y-022577
X+022214Y-022577
X+024174Y-022577
X+026144Y-022577
X+028114Y-022577
X+030084Y-022577
X+032054Y-022577
X+034024Y-022577
X+035994Y-022577
X+037954Y-022577
X-034766Y-005150
X-034690Y-015380
X-034690Y-012663
X+056717Y-022425
X+056723Y-028421
T10
X+052920Y+013100
X+055794Y+013100
X+054376Y+014911
T11
X-032774Y-032384
X-037577Y-032384
X-039264Y-032384
X-044067Y-032384
X-045604Y-032384
X-050407Y-032384
X+040634Y+033984
X+045437Y+033984
X+045827Y-032354
X+041024Y-032354
X-044335Y+033964
X-039532Y+033964
X-038187Y+033964
X-033384Y+033964
X-050447Y+033964
X-045644Y+033964
X+046832Y+034004
X+051635Y+034004
X+051980Y-032360
X+047176Y-032360
X-055605Y+007386
X-055605Y+012190
X-055605Y-006730
X-055605Y-001926
X-055605Y-021503
X-055605Y-016700
X-055605Y-027583
X-055605Y-022780
X-055594Y+013672
X-055594Y+018475
T12
X+056497Y-032961
X+053702Y-032961
T13
X-030289Y+001427
X-033438Y+001427
M30
