M48
INCH
T01C0.0150
T02C0.0400
T03C0.1259
T04C0.0450
T05C0.0300
T06C0.1120
T07C0.0350
T08C0.1200
T09C0.0600
T10C0.0700
%
T01
X-041000Y+037500
X-035500Y+038500
X-033500Y+038250
X-029500Y+038000
X-027500Y+038000
X-023750Y+037750
X-018250Y+036500
X-013500Y+038500
X-011500Y+037750
X-005500Y+037750
X+010500Y+038000
X+013750Y+038000
X-045000Y+035250
X-046750Y+032500
X-047500Y+028000
X-048000Y+025000
X-046000Y+021500
X-046250Y+018750
X-047140Y+011564
X+041328Y+038239
X+047250Y+038500
X-024000Y-018750
X+018250Y-022000
X-053000Y+023000
X-053416Y+027590
X-053468Y+034565
X-053500Y-000750
X-011260Y+043780
X+051000Y+001500
X-006250Y+004500
X+025750Y+006250
X-033000Y+000250
X-030326Y+008556
X-022159Y+011035
X+037250Y+011250
X+027500Y-027000
X+040328Y+003900
X+041390Y+003500
X+016930Y-011750
X+016930Y+014250
X+023250Y+014250
X+022250Y+018500
X+036250Y-005750
X+026250Y-012000
X+026250Y-026500
X+025750Y-027000
X+025750Y-011500
X+035250Y-005250
X-010221Y-027167
X+015500Y+010750
X+034000Y+010750
X+029250Y-027500
X+029250Y+011250
X+013000Y+011250
X+028250Y+010750
X+017250Y+011410
X+011260Y+002150
X+010132Y+002094
X-011250Y+024250
X+016250Y-020500
X+008500Y+032250
X+010000Y+032750
X-004750Y+033500
X-035250Y+013500
X+048750Y-025500
X+053750Y+012250
X-008250Y+033750
X+011500Y+019000
X+010750Y-021250
X-005500Y-013000
X-024130Y-031000
X+051480Y+040740
X-049670Y+012580
X+021750Y-010907
X-024000Y+014250
X-034000Y+019000
X-029750Y+015750
X+034000Y+031490
X+039000Y+035500
X+011750Y+012750
X-011250Y+028990
X-010610Y+033250
X+031750Y-016250
X+023760Y-011010
X+013750Y+006250
X+013174Y-011084
X+013573Y-001477
X+032203Y+002840
X-047500Y+033750
X-047500Y+039750
X-044250Y+031250
X-044250Y+039750
X+016500Y+030500
X+015500Y+039000
X+019000Y+030500
X+019000Y+038500
X+021500Y+035750
X+018820Y+029500
X+029000Y+033750
X+029000Y+039000
X+026000Y+028750
X+025250Y+028500
X+035130Y+033750
X+036000Y+038500
X+035750Y+034500
X+041000Y+038750
X+048000Y+037250
X+048000Y+039750
X+045250Y+035500
X-020530Y+015530
X-034750Y+026000
X-050750Y+026750
X-048250Y-001500
X-048250Y+017750
X-047250Y-000750
X-047750Y+021250
X-049000Y+000000
X-049000Y+011750
X-051750Y+010250
X-046500Y+002250
X-046500Y+000500
X-031250Y+031750
X-034250Y+037750
X-030000Y+030500
X-034750Y+039750
X-032000Y+032250
X-032500Y+038750
X-034850Y+041202
X-028500Y+036750
X-028000Y+033000
X-026750Y+031750
X-026750Y+039250
X-024750Y+032750
X-024000Y+039750
X-020250Y+020750
X-020250Y+036750
X-025500Y+020750
X-016000Y+039250
X-018860Y+020000
X-012400Y+039250
X-009000Y+039250
X-014000Y+021250
X-029250Y+021250
X-013250Y+039750
X-000750Y+019000
X+001000Y+040000
X-031750Y+022750
X-022750Y+035500
X+013000Y+029250
X+010500Y+039000
X+015250Y+029750
X+014750Y+038000
X+029750Y+021500
X+029500Y+001120
X+029500Y+002250
X+016590Y-002750
X+016600Y+013750
X+023750Y+013750
X-022250Y+004750
X+030190Y-001030
X+030180Y+024200
X+021814Y+009911
X+030190Y+009310
X+030750Y-013000
X-001250Y-013000
X+029000Y+005250
X+030840Y+008000
X+034750Y+010750
X+034500Y+009500
X+033258Y+002616
X+033724Y+004354
X+030706Y+004370
X+030750Y+023250
X+021750Y+013250
X-003500Y+012500
X-002760Y+004880
X+025160Y+001250
X-006500Y+033500
X+004250Y+033250
X-037750Y+007500
X+004750Y+025750
X+025250Y-013500
X+017120Y+016250
X-025360Y-015480
X-023221Y-010352
X-036250Y+007500
X-036190Y+017130
X-023250Y-015250
X+004250Y+030210
X+025250Y+022750
X+022500Y+023500
X+018750Y-019250
X+013500Y-013750
X+005500Y+027500
X-007000Y+032750
X+005000Y+032750
X+023250Y-012250
X+017250Y+017000
X+019000Y-012250
X+022250Y-012250
X-028084Y-004584
X-037261Y+017367
X-020850Y-015770
X+005000Y+030500
X+018750Y+023000
X+017000Y-019750
X+005500Y+003750
X-026000Y+010000
X-029000Y+023000
X-030000Y+023000
X-032250Y+023000
X-030250Y+027250
X-025000Y+027250
X+037500Y+040000
X+038500Y+037250
X+026250Y+032000
X-052500Y+023000
X+016750Y+017500
X+039250Y+039250
X+026750Y+031500
X+025500Y+031250
X-048750Y+035000
X-038500Y+003000
X-038500Y+004000
X-038500Y+017000
X-040000Y+008750
X-041756Y+002140
X-041750Y+002650
X-044250Y+002500
X-039500Y+020750
X-040250Y+006000
X-040750Y+002250
X-041750Y-001710
X-001500Y+026750
X-001500Y+013000
X-033000Y+039250
X-030250Y+033750
X+004250Y+020000
X+017000Y+040000
X+020000Y+024000
X+023000Y+039000
X+033000Y+039000
X+033000Y+034250
X+022500Y+025000
X+023500Y+038000
X+026500Y+040750
X+039750Y+041000
X-028250Y+040750
X-003750Y+035000
X-003750Y+022250
X-018750Y+031500
X-018250Y+037250
X-003250Y+020750
X-005500Y+040000
X-005500Y+040750
X-002750Y+040000
X-002750Y+020250
X+003750Y+020750
X+003750Y+035500
X+002000Y+022000
X+007750Y+040000
X-051750Y+016750
X-034001Y+014342
X-034247Y+016456
X-050750Y+018000
X-039000Y+005500
X-039000Y+011500
X-049750Y+010750
X-025750Y-019250
X-040950Y-020550
X-032890Y-016457
X-032337Y-017127
X-031730Y-015270
X-026250Y-023500
X-026250Y-018500
X-006500Y-027500
X+008500Y-022000
X+010631Y-009053
X+015500Y-028750
X+019000Y-024750
X+030750Y-024750
X+037250Y-027750
X+016250Y-021000
X+040004Y-030399
X+017584Y-023472
X+017067Y-022635
X+018750Y-022540
X+016416Y-022553
X+016498Y-023482
X+004750Y+011000
X+014500Y+027250
X+016500Y+027250
X+017500Y+027250
X+018500Y+027250
X+020250Y+027250
X-027410Y+008070
X-031474Y+007999
X-031750Y+001750
X-040750Y+006500
X-035000Y+006500
X-033000Y+003250
X-032750Y+004250
X-033000Y+005750
X-041260Y-001240
X-038553Y-000828
X-033846Y-000820
X-022760Y+010630
X+002000Y-020570
X-004520Y-025460
X-004500Y-020390
X+004500Y-025470
X+001448Y-025467
X+001332Y-019216
X+005250Y-018750
X+000452Y-025146
X+012250Y+011500
X+014850Y-017350
X+042160Y-016960
X+042176Y-023518
X+039554Y-023570
X+036900Y-023580
X+041250Y-020750
X-020100Y+012240
X-019930Y+031129
X-039000Y+032500
X-037500Y+032000
X+007500Y+031250
X-007228Y+025093
X+006000Y+028000
X-007520Y+026050
X+025750Y+032250
X+025000Y+028000
X+026096Y+029618
X-006950Y+027173
X-008178Y+027173
X-041000Y+030750
X-041750Y+030750
X-017250Y+024250
X-013500Y+024250
X-009000Y+024250
X-009000Y+021250
X-018500Y+024750
X-015250Y+024750
X-005250Y+031750
X-018500Y+024250
X-013500Y+026250
X-009250Y+030500
X+007500Y+032250
X+008500Y+028500
X-041250Y+035000
X-041500Y+040000
X-030000Y+040000
X-036250Y+040000
X-036250Y+040750
X-042500Y+037500
X-037000Y+035500
X-042500Y+042000
X-039500Y+032250
X-029500Y+033250
X-026000Y+040000
X-005750Y+031750
X-014750Y+031750
X-014500Y+039000
X-014500Y+043000
X-004750Y+037250
X-007250Y+042000
X-005250Y+033500
X-014250Y+032750
X-014250Y+036250
X-004750Y+031750
X-002000Y+031750
X-002250Y+040000
X-009250Y+029250
X+012750Y+030250
X+012750Y+035500
X+010000Y+039500
X+008000Y+036250
X+011000Y+038500
X+011000Y+040750
X+009500Y+035000
X+007500Y+035500
X+017250Y+039000
X+017250Y+033750
X+008250Y+033750
X+008000Y+032250
X+024500Y+033250
X+025000Y+038500
X+007500Y+031750
X+021000Y+031750
X+024500Y+039500
X-037500Y+035500
X-034500Y+027250
X+009500Y+016250
X-053500Y+021250
X+024250Y+032000
X+023750Y+030750
X-045000Y-013500
X-010250Y-032250
X-031500Y-033500
X-022500Y-025000
X+012750Y+025750
X+012250Y+028250
X-056000Y+027000
X-056000Y+034500
X-011250Y-032750
X-032250Y-033500
X+047000Y-033250
X+046250Y-032750
X-006750Y-018500
X-013129Y+028095
X+028505Y+032486
X-040450Y-000604
X+047250Y-022000
X+009000Y-022750
X-022500Y-028500
X+020500Y-021250
X+040940Y+046520
X+033850Y+046570
X+026475Y+046563
X+012430Y+046570
X+004977Y+046572
X-002084Y+046576
X-009270Y+046576
X-016523Y+046584
X-023678Y+046536
X-031395Y+046557
X+048313Y+046796
X+031500Y-029750
X+009500Y+021250
X+013000Y+021750
X-033250Y+016750
X-033250Y+018770
X-027250Y+013750
X+005000Y+023750
X-006409Y-019030
X-006250Y-013750
X-025250Y-018500
X-054670Y+012920
X-055467Y+019881
X+043250Y+015000
X+019434Y+046551
X+033559Y+032490
X-038446Y+046573
X-045426Y+046556
X+033500Y-013000
X+031578Y-006782
X+018250Y-020250
X+020500Y-029750
X+011750Y+028250
X-036750Y+030000
X-013133Y+033673
X-009500Y+033663
X-012854Y+024849
X-018755Y+028411
X-043250Y+040750
X-032000Y+037750
X-023750Y+032250
X-047500Y-011500
X-039000Y-003000
X+037890Y-019260
X+016750Y-029750
X+026000Y-029750
X+040000Y-031750
X+034750Y+008000
X+034750Y-009000
X+005750Y-012750
X+031250Y+009500
X+001750Y+003750
X-050473Y-001048
X-056250Y+005750
X+038250Y+012000
X-018320Y+012166
X-019255Y+009220
X-023735Y+009154
X-034866Y+009257
X-043123Y+009257
X-035500Y+033750
X-039750Y+033750
X-035000Y+035000
X-040000Y+035000
X-039750Y+040750
X-038000Y+040000
X-020750Y+037000
X-006750Y+021750
X-018750Y+038250
X+024250Y+029500
X-006750Y+039250
X-009859Y+028464
X-008686Y+028464
X-006000Y+040000
X-015000Y+020250
X+000250Y+042000
X-003250Y+038500
X+010750Y+027750
X+011250Y+025750
X+024500Y+030750
X+027750Y+030750
X+019000Y-009250
X+022000Y-001250
X+015750Y-023000
T02
X+024268Y-010325
X+025268Y-010325
X+026268Y-010325
X+027268Y-010325
X+028268Y-010325
X+029268Y-010325
X+030268Y-010325
X+031268Y-010325
X+033242Y-010307
X+034242Y-010307
X+035242Y-010307
X+036242Y-010307
X+037242Y-010307
X+038242Y-010307
X+039242Y-010307
X+040242Y-010307
X+038256Y+008694
X+037256Y+008694
X+036256Y+008694
X+035256Y+008694
X+034256Y+008694
X+033256Y+008694
X+032256Y+008694
X+031256Y+008694
X+029256Y+008694
X+028256Y+008694
X+027256Y+008694
X+026256Y+008694
X+025256Y+008694
X+024256Y+008694
X+023256Y+008694
X+022256Y+008694
X+041878Y-010321
X+042878Y-010321
X+043878Y-010321
X+044878Y-010321
X+045878Y-010321
X+046878Y-010321
X+047878Y-010321
X+048878Y-010321
X+045256Y+008694
X+044256Y+008694
X+043256Y+008694
X+042256Y+008694
X+041256Y+008694
X+040256Y+008694
X+021253Y-010289
X+020253Y-010289
X+021253Y-009289
X+020253Y-009289
X+021253Y-008289
X+020253Y-008289
X+021253Y-007289
X+020253Y-007289
X+021253Y-006289
X+020253Y-006289
X+021253Y-005289
X+020253Y-005289
X+021253Y-004289
X+020253Y-004289
X+021253Y-003289
X+020253Y-003289
X+021253Y-002289
X+020253Y-002289
X+021253Y-001289
X+020253Y-001289
X+021253Y-000289
X+020253Y-000289
X+021253Y+000710
X+020253Y+000710
X+021253Y+001710
X+020253Y+001710
X+021253Y+002710
X+020253Y+002710
X+021253Y+003710
X+020253Y+003710
X+021253Y+004710
X+020253Y+004710
X+021253Y+005710
X+020253Y+005710
X+021253Y+006710
X+020253Y+006710
X+009259Y-016771
X+010259Y-016771
X+011259Y-016771
X+012259Y-016771
X+038252Y+013719
X+038252Y+014719
X+038252Y+015719
X+038252Y+016719
X+024369Y+012751
X+024369Y+013751
X+024369Y+014751
X+024369Y+015751
X+024369Y+016751
X+024369Y+017751
X+050102Y-024370
X+051102Y-024370
X+052102Y-024370
X+053102Y-024370
X-020518Y+006888
X-020518Y+005888
X-020518Y+004888
X-020518Y+003888
X-021518Y+003888
X-021518Y+004888
X-021518Y+005888
X-021518Y+006888
X-043728Y+046306
X-049634Y+046306
X-036494Y+046306
X-042399Y+046306
X-029325Y+046306
X-035230Y+046306
X-022115Y+046300
X-028020Y+046300
X-014885Y+046300
X-020790Y+046300
X-007704Y+046300
X-013610Y+046300
X-000483Y+046306
X-006389Y+046306
X+006694Y+046301
X+000789Y+046301
X+013879Y+046306
X+007973Y+046306
X+021109Y+046310
X+015203Y+046310
X+028305Y+046296
X+022399Y+046296
X+035483Y+046310
X+029578Y+046310
X+042678Y+046306
X+036772Y+046306
X+049887Y+046300
X+043981Y+046300
X-056155Y+037784
X-056155Y+031878
X-056155Y+030524
X-056155Y+024618
X-056151Y+023345
X-056151Y+017440
X-056151Y+016148
X-056151Y+010242
X-056156Y+008896
X-056156Y+002990
X-056156Y+001698
X-056156Y-004207
X+003480Y-023086
X+003480Y-022086
X+002480Y-023086
X+002480Y-022086
X+001480Y-023086
X+001480Y-022086
X+000480Y-023086
X+000480Y-022086
X-000519Y-023086
X-000519Y-022086
X-001519Y-023086
X-001519Y-022086
X-002519Y-023086
X-002519Y-022086
X-003519Y-023086
X-003519Y-022086
X-004519Y-023086
X-004519Y-022086
X-005519Y-023086
X-005519Y-022086
X+039905Y-022322
X+039905Y-021322
X+038905Y-022322
X+038905Y-021322
X+037905Y-022322
X+037905Y-021322
X+036905Y-022322
X+036905Y-021322
X+035905Y-022322
X+035905Y-021322
X+034905Y-022322
X+034905Y-021322
X+033905Y-022322
X+033905Y-021322
X+032905Y-022322
X+032905Y-021322
X+031905Y-022322
X+031905Y-021322
X+030905Y-022322
X+030905Y-021322
X-018692Y-014566
X-017692Y-014566
X-016692Y-014566
X-015692Y-014566
X-056181Y-012007
X-040433Y-018582
X-056181Y-018543
X-040433Y-011968
X+053188Y+037780
X+054188Y+037780
X+055188Y+037780
X-037580Y-011980
X-037580Y-010980
X-049620Y-032944
X-043714Y-032944
X-042281Y-032941
X-036375Y-032941
X-034926Y-032939
X-029021Y-032939
X-027800Y-032935
X-021894Y-032935
X-020732Y-032951
X-014827Y-032951
X-013609Y-032926
X-007704Y-032926
X-006561Y-032928
X-000655Y-032928
X+000520Y-032956
X+006426Y-032956
X+007629Y-032956
X+013534Y-032956
X+014757Y-032948
X+020662Y-032948
X+022132Y-032951
X+028037Y-032951
X+029397Y-032927
X+035303Y-032927
X+033559Y+030385
X+032559Y+030385
X+033559Y+029385
X+032559Y+029385
X+033559Y+028385
X+032559Y+028385
X+033559Y+027385
X+032559Y+027385
X+033559Y+026385
X+032559Y+026385
X+033559Y+025385
X+032559Y+025385
X+036670Y-032949
X+042576Y-032949
X+043977Y-032949
X+049883Y-032949
X+021813Y-015173
X+022813Y-015173
X+023813Y-015173
X+024813Y-015173
X+021807Y-018730
X+022807Y-018730
X+023807Y-018730
X+024807Y-018730
X+027150Y+022200
X+027150Y+023200
X+027150Y+024200
X+027150Y+025200
X+027150Y+026200
X+027150Y+027200
X+009387Y-010167
X+008387Y-010167
X+007387Y-010167
X+006387Y-010167
X+005387Y-010167
X+004387Y-010167
X+003387Y-010167
X+002387Y-010167
X+004373Y+008834
X+005373Y+008834
X+006373Y+008834
X+007373Y+008834
X+008373Y+008834
X+009373Y+008834
X+010373Y+008834
X+011373Y+008834
X+000751Y-010181
X-000248Y-010181
X-001248Y-010181
X-002248Y-010181
X-003248Y-010181
X-004248Y-010181
X-005248Y-010181
X-006248Y-010181
X-002626Y+008834
X-001626Y+008834
X-000626Y+008834
X+000373Y+008834
X+001373Y+008834
X+002373Y+008834
X+033250Y-002290
X+032250Y-002290
X+033250Y-001290
X+032250Y-001290
X+033250Y-000290
X+032250Y-000290
X+009470Y-002170
X+010470Y-002170
X+009470Y-001170
X+010470Y-001170
X+009470Y-000170
X+010470Y-000170
X-042090Y-008220
X-042090Y-009220
X+019140Y-015170
X+018140Y-015170
X+017140Y-015170
X+016140Y-015170
X+021220Y-022520
X+022220Y-022520
X+023220Y-022520
X+024220Y-022520
X+018280Y-003480
X+018280Y-002480
X+018280Y-001480
X+018280Y-000480
X+057210Y+001711
X+057210Y+003680
X+056147Y+001239
X+056147Y+004152
T03
X+052123Y-010259
X+022733Y-010279
X+032203Y-004299
X+032203Y+006660
X+020263Y+008640
X+054094Y+044094
X+052125Y-020669
X-053897Y+044094
X+052761Y+008655
X-053890Y-029960
X+053976Y-029842
X-016771Y+019055
X+052177Y+019074
X-016732Y-020708
X+057047Y+022283
X+057047Y+033228
X+040196Y+022244
X+040196Y+033110
X-009493Y-010119
X+010426Y-004159
X+010426Y+006800
X-010131Y+008795
T04
X+047346Y-016621
X+047346Y-019771
T05
X-029255Y+005669
X-029255Y+004669
X-029255Y+003669
X-029255Y+002669
X-029255Y+001669
X-029255Y+000669
X-029255Y-000330
X-029255Y-001330
X-029255Y-002330
X-029255Y-003330
X-029255Y-004330
X-029255Y-005330
X-029255Y-006330
X-029255Y-007330
X-032255Y-007330
X-032255Y-006330
X-032255Y-005330
X-032255Y-004330
X-032255Y-003330
X-032255Y-002330
X-032255Y-001330
X-032255Y-000330
X-032255Y+000669
X-032255Y+001669
X-032255Y+002669
X-032255Y+003669
X-032255Y+004669
X-032255Y+005661
X+004090Y-014782
X+003090Y-014782
X+002090Y-014782
X+001090Y-014782
X+000090Y-014782
X-000909Y-014782
X-001909Y-014782
X-002909Y-014782
X-003909Y-014782
X-004909Y-014782
X-005909Y-014782
X-006909Y-014782
X-007909Y-014782
X-008909Y-014782
X-008909Y-017782
X-007909Y-017782
X-006909Y-017782
X-005909Y-017782
X-004909Y-017782
X-003909Y-017782
X-002909Y-017782
X-001909Y-017782
X-000909Y-017782
X+000090Y-017782
X+001090Y-017782
X+002090Y-017782
X+003090Y-017782
X+004083Y-017782
X-025172Y+023601
X-026172Y+023601
X-027172Y+023601
X-028172Y+023601
X-029172Y+023601
X-030172Y+023601
X-031172Y+023601
X-032172Y+023601
X-033172Y+023601
X-034172Y+023601
X-035172Y+023601
X-036172Y+023601
X-037172Y+023601
X-038172Y+023601
X-038172Y+026601
X-037172Y+026601
X-036172Y+026601
X-035172Y+026601
X-034172Y+026601
X-033172Y+026601
X-032172Y+026601
X-031172Y+026601
X-030172Y+026601
X-029172Y+026601
X-028172Y+026601
X-027172Y+026601
X-026172Y+026601
X-025180Y+026601
X+021329Y+023601
X+020329Y+023601
X+019329Y+023601
X+018329Y+023601
X+017329Y+023601
X+016329Y+023601
X+015329Y+023601
X+014329Y+023601
X+013329Y+023601
X+012329Y+023601
X+011329Y+023601
X+010329Y+023601
X+009329Y+023601
X+008329Y+023601
X+008329Y+026601
X+009329Y+026601
X+010329Y+026601
X+011329Y+026601
X+012329Y+026601
X+013329Y+026601
X+014329Y+026601
X+015329Y+026601
X+016329Y+026601
X+017329Y+026601
X+018329Y+026601
X+019329Y+026601
X+020329Y+026601
X+021321Y+026601
X+041225Y-014771
X+040225Y-014771
X+039225Y-014771
X+038225Y-014771
X+037225Y-014771
X+036225Y-014771
X+035225Y-014771
X+034225Y-014771
X+033225Y-014771
X+032225Y-014771
X+031225Y-014771
X+030225Y-014771
X+029225Y-014771
X+028225Y-014771
X+028225Y-017771
X+029225Y-017771
X+030225Y-017771
X+031225Y-017771
X+032225Y-017771
X+033225Y-017771
X+034225Y-017771
X+035225Y-017771
X+036225Y-017771
X+037225Y-017771
X+038225Y-017771
X+039225Y-017771
X+040225Y-017771
X+041218Y-017771
T06
X-052192Y-023507
X-055066Y-023507
X-053648Y-021696
X-052209Y-007267
X-055083Y-007267
X-053666Y-005456
T07
X-048552Y+042459
X-045052Y+041459
X-048052Y+041459
X-045552Y+042459
X-047552Y+042459
X-046052Y+041459
X-047052Y+041459
X-046552Y+042459
X-041318Y+042459
X-037818Y+041459
X-040818Y+041459
X-038318Y+042459
X-040318Y+042459
X-038818Y+041459
X-039818Y+041459
X-039318Y+042459
X-034149Y+042459
X-030649Y+041459
X-033649Y+041459
X-031149Y+042459
X-033149Y+042459
X-031649Y+041459
X-032649Y+041459
X-032149Y+042459
X-026939Y+042453
X-023439Y+041453
X-026439Y+041453
X-023939Y+042453
X-025939Y+042453
X-024439Y+041453
X-025439Y+041453
X-024939Y+042453
X-019709Y+042453
X-016209Y+041453
X-019209Y+041453
X-016709Y+042453
X-018709Y+042453
X-017209Y+041453
X-018209Y+041453
X-017709Y+042453
X-012528Y+042453
X-009028Y+041453
X-012028Y+041453
X-009528Y+042453
X-011528Y+042453
X-010028Y+041453
X-011028Y+041453
X-010528Y+042453
X-005308Y+042459
X-001808Y+041459
X-004808Y+041459
X-002308Y+042459
X-004308Y+042459
X-002808Y+041459
X-003808Y+041459
X-003308Y+042459
X+001870Y+042453
X+005370Y+041453
X+002370Y+041453
X+004870Y+042453
X+002870Y+042453
X+004370Y+041453
X+003370Y+041453
X+003870Y+042453
X+009055Y+042459
X+012555Y+041459
X+009555Y+041459
X+012055Y+042459
X+010055Y+042459
X+011555Y+041459
X+010555Y+041459
X+011055Y+042459
X+016285Y+042463
X+019785Y+041463
X+016785Y+041463
X+019285Y+042463
X+017285Y+042463
X+018785Y+041463
X+017785Y+041463
X+018285Y+042463
X+023480Y+042449
X+026980Y+041449
X+023980Y+041449
X+026480Y+042449
X+024480Y+042449
X+025980Y+041449
X+024980Y+041449
X+025480Y+042449
X+030659Y+042463
X+034159Y+041463
X+031159Y+041463
X+033659Y+042463
X+031659Y+042463
X+033159Y+041463
X+032159Y+041463
X+032659Y+042463
X+037854Y+042459
X+041354Y+041459
X+038354Y+041459
X+040854Y+042459
X+038854Y+042459
X+040354Y+041459
X+039354Y+041459
X+039854Y+042459
X+045062Y+042453
X+048562Y+041453
X+045562Y+041453
X+048062Y+042453
X+046062Y+042453
X+047562Y+041453
X+046562Y+041453
X+047062Y+042453
X-052308Y+032960
X-051308Y+036460
X-051308Y+033460
X-052308Y+035960
X-052308Y+033960
X-051308Y+035460
X-051308Y+034460
X-052308Y+034960
X-052308Y+025700
X-051308Y+029200
X-051308Y+026200
X-052308Y+028700
X-052308Y+026700
X-051308Y+028200
X-051308Y+027200
X-052308Y+027700
X-052303Y+018521
X-051303Y+022021
X-051303Y+019021
X-052303Y+021521
X-052303Y+019521
X-051303Y+021021
X-051303Y+020021
X-052303Y+020521
X-052303Y+011323
X-051303Y+014823
X-051303Y+011823
X-052303Y+014323
X-052303Y+012323
X-051303Y+013823
X-051303Y+012823
X-052303Y+013323
X-052308Y+004072
X-051308Y+007572
X-051308Y+004572
X-052308Y+007072
X-052308Y+005072
X-051308Y+006572
X-051308Y+005572
X-052308Y+006072
X-052308Y-003125
X-051308Y+000374
X-051308Y-002625
X-052308Y-000125
X-052308Y-002125
X-051308Y-000625
X-051308Y-001625
X-052308Y-001125
X-044795Y-029097
X-048295Y-028097
X-045295Y-028097
X-047795Y-029097
X-045795Y-029097
X-047295Y-028097
X-046295Y-028097
X-046795Y-029097
X-037457Y-029094
X-040957Y-028094
X-037957Y-028094
X-040457Y-029094
X-038457Y-029094
X-039957Y-028094
X-038957Y-028094
X-039457Y-029094
X-030102Y-029092
X-033602Y-028092
X-030602Y-028092
X-033102Y-029092
X-031102Y-029092
X-032602Y-028092
X-031602Y-028092
X-032102Y-029092
X-022976Y-029088
X-026476Y-028088
X-023476Y-028088
X-025976Y-029088
X-023976Y-029088
X-025476Y-028088
X-024476Y-028088
X-024976Y-029088
X-015908Y-029104
X-019408Y-028104
X-016408Y-028104
X-018908Y-029104
X-016908Y-029104
X-018408Y-028104
X-017408Y-028104
X-017908Y-029104
X-008785Y-029079
X-012285Y-028079
X-009285Y-028079
X-011785Y-029079
X-009785Y-029079
X-011285Y-028079
X-010285Y-028079
X-010785Y-029079
X-001736Y-029081
X-005236Y-028081
X-002236Y-028081
X-004736Y-029081
X-002736Y-029081
X-004236Y-028081
X-003236Y-028081
X-003736Y-029081
X+005345Y-029109
X+001845Y-028109
X+004845Y-028109
X+002345Y-029109
X+004345Y-029109
X+002845Y-028109
X+003845Y-028109
X+003345Y-029109
X+012453Y-029109
X+008953Y-028109
X+011953Y-028109
X+009453Y-029109
X+011453Y-029109
X+009953Y-028109
X+010953Y-028109
X+010453Y-029109
X+019581Y-029101
X+016081Y-028101
X+019081Y-028101
X+016581Y-029101
X+018581Y-029101
X+017081Y-028101
X+018081Y-028101
X+017581Y-029101
X+026956Y-029104
X+023456Y-028104
X+026456Y-028104
X+023956Y-029104
X+025956Y-029104
X+024456Y-028104
X+025456Y-028104
X+024956Y-029104
X+034222Y-029080
X+030722Y-028080
X+033722Y-028080
X+031222Y-029080
X+033222Y-029080
X+031722Y-028080
X+032722Y-028080
X+032222Y-029080
X+041494Y-029102
X+037994Y-028102
X+040994Y-028102
X+038494Y-029102
X+040494Y-029102
X+038994Y-028102
X+039994Y-028102
X+039494Y-029102
X+048802Y-029102
X+045302Y-028102
X+048302Y-028102
X+045802Y-029102
X+047802Y-029102
X+046302Y-028102
X+047302Y-028102
X+046802Y-029102
X+055283Y-015464
X+054141Y-015976
X+054141Y-014992
X+055283Y-016527
X+055307Y+014456
X+054165Y+013944
X+054165Y+014929
X+055307Y+013393
T08
X-048728Y+044967
X-044712Y+045007
X-041494Y+044967
X-037478Y+045007
X-034325Y+044967
X-030309Y+045007
X-027115Y+044961
X-023099Y+045001
X-019885Y+044961
X-015869Y+045001
X-012704Y+044961
X-008688Y+045001
X-005483Y+044967
X-001468Y+045007
X+001694Y+044962
X+005710Y+045001
X+008879Y+044968
X+012895Y+045007
X+016109Y+044971
X+020125Y+045011
X+023305Y+044957
X+027320Y+044997
X+030483Y+044971
X+034499Y+045011
X+037678Y+044967
X+041694Y+045007
X+044887Y+044961
X+048902Y+045001
X-054816Y+032784
X-054856Y+036800
X-054816Y+025524
X-054856Y+029540
X-054812Y+018345
X-054851Y+022361
X-054812Y+011148
X-054851Y+015163
X-054817Y+003896
X-054856Y+007912
X-054817Y-003301
X-054856Y+000714
X-044620Y-031605
X-048635Y-031645
X-037281Y-031602
X-041297Y-031641
X-029926Y-031600
X-033942Y-031640
X-022800Y-031596
X-026816Y-031635
X-015732Y-031612
X-019748Y-031652
X-008609Y-031588
X-012625Y-031627
X-001561Y-031590
X-005576Y-031629
X+005520Y-031618
X+001505Y-031657
X+012629Y-031617
X+008613Y-031657
X+019757Y-031610
X+015741Y-031649
X+027132Y-031613
X+023116Y-031652
X+034397Y-031589
X+030382Y-031628
X+041670Y-031610
X+037654Y-031650
X+048977Y-031610
X+044962Y-031650
T09
X-045300Y+036530
X-043330Y+036530
X-041360Y+036530
X-039390Y+036530
X-037430Y+036530
X-035460Y+036530
X-033490Y+036530
X-031520Y+036530
X-029550Y+036530
X-027580Y+036530
X-025610Y+036530
X-023650Y+036530
X-017360Y+036510
X-015390Y+036510
X-013420Y+036510
X-011450Y+036510
X-009490Y+036510
X-007520Y+036510
X-005550Y+036510
X-003580Y+036510
X-001610Y+036510
X+000360Y+036510
X+002330Y+036510
X+004290Y+036510
X+010410Y+036440
X+012380Y+036440
X+014350Y+036440
X+016320Y+036440
X+018280Y+036440
X+020250Y+036440
X+022220Y+036440
X+024190Y+036440
X+026160Y+036440
X+028130Y+036440
X+030100Y+036440
X+032060Y+036440
X-045120Y+031190
X-045120Y+029220
X-045120Y+027250
X-045120Y+025280
X-045120Y+023320
X-045120Y+021350
X-045120Y+019380
X-045120Y+017410
X-045120Y+015440
X-045120Y+013470
X-045120Y+011500
X-045120Y+009540
X+037380Y+036500
X+039350Y+036500
X+041320Y+036500
X+043290Y+036500
X+045250Y+036500
X+047220Y+036500
X-045138Y+006837
X-045138Y+004867
X-045138Y+002897
X-045138Y+000927
X-045138Y-001032
X-045138Y-003002
X-047471Y-008244
X-047471Y-006244
X-047444Y-024114
X-047444Y-022114
T10
X+056267Y-018220
X+056267Y-013417
X+056291Y+011700
X+056291Y+016503
M30
